<?xml version="1.0" encoding="UTF-8"?>
<svg width="20px" height="21px" viewBox="0 0 20 21" version="1.1" xmlns="http://www.w3.org/2000/svg" xmlns:xlink="http://www.w3.org/1999/xlink">
    <title>email</title>
    <g id="Page-1" stroke="none" stroke-width="1" fill="none" fill-rule="evenodd">
        <g id="email" fill="#FFFFFF" fill-rule="nonzero">
            <path d="M18.67,12.4122891 C19.5357598,11.134144 19.9989854,9.62604879 20,8.08228912 C19.8745847,3.50804575 16.0747265,-0.104054747 11.5,0.00228912185 C8.42429601,-0.0371257923 5.56282094,1.57293084 4,4.22228912 C1.5457699,5.63910154 0.0242193116,8.24856079 0,11.0822891 C0.00101459155,12.6260488 0.464240156,14.134144 1.33,15.4122891 L0.07,18.6422891 C-0.0537436748,18.9853312 0.0190652227,19.3685359 0.26,19.6422891 C0.443573249,19.8629252 0.713100208,19.9940465 1,20.0022891 C1.08941122,20.016848 1.18058878,20.016848 1.27,20.0022891 L5.73,18.7622891 C6.62302482,19.0606844 7.55844122,19.2126473 8.5,19.2122891 C11.1171818,19.219653 13.5963045,18.0389432 15.24,16.0022891 L18.73,17.0022891 C18.8194112,17.016848 18.9105888,17.016848 19,17.0022891 C19.2821782,17.0016222 19.5509408,16.8817686 19.74,16.6722891 C19.9809348,16.3985359 20.0537437,16.0153312 19.93,15.6722891 L18.67,12.4122891 Z M14.36,13.6922891 L14.24,13.6922891 C14.1196658,13.6902799 14.0003049,13.7141521 13.89,13.7622891 C13.1244693,14.0437692 12.3156343,14.1892918 11.5,14.1922891 C8.01826454,14.2988754 5.10877674,11.5639568 5,8.08228912 C5.00099141,7.25337075 5.1818174,6.43453611 5.53,5.68228912 C6.0378065,4.57748595 6.85829299,3.64574706 7.89,3.00228912 C8.974669,2.33454133 10.2263499,1.98781531 11.5,2.00228912 C14.970414,1.89549451 17.8750861,4.61248008 18,8.08228912 C17.9969974,9.22849588 17.6485002,10.347172 17,11.2922891 C16.92,11.4122891 16.85,11.5422891 16.76,11.6522891 C16.5361107,11.935856 16.4825909,12.3181405 16.62,12.6522891 L16.76,13.0122891 L17.35,14.5222891 L16.35,14.2422891 L14.52,13.7322891 L14.36,13.6922891 Z M8.5,17.1722891 C7.68436569,17.1692918 6.87553072,17.0237692 6.11,16.7422891 C5.91258347,16.6729182 5.69741653,16.6729182 5.5,16.7422891 L2.66,17.5322891 L3.39,15.6622891 C3.52740914,15.3281405 3.47388931,14.945856 3.25,14.6622891 C1.66784678,12.6943099 1.56617943,9.92082456 3,7.84228912 C3,7.92228912 3,8.00228912 3,8.08228912 C3.12001167,12.6604755 6.9214744,16.2785735 11.5,16.1722891 C11.72,16.1722891 11.93,16.1722891 12.15,16.1222891 C11.0575272,16.8113475 9.79162219,17.175512 8.5,17.1722891 Z" id="Shape"></path>
        </g>
    </g>
</svg>