<?xml version="1.0" encoding="UTF-8"?>
<svg width="21px" height="12px" viewBox="0 0 21 12" version="1.1" xmlns="http://www.w3.org/2000/svg" xmlns:xlink="http://www.w3.org/1999/xlink">
    <title>Group 17</title>
    <g id="Page-1" stroke="none" stroke-width="1" fill="none" fill-rule="evenodd">
        <g id="Group-17" transform="translate(-0, 0)" fill="#000000" fill-rule="nonzero">
            <path d="M0,6 C0,6.47428726 0.384485791,6.85877305 0.858773051,6.85877305 L17.678702,6.85877305 L13.9928481,10.544627 C13.667397,10.8815914 13.6720514,11.4172132 14.0033092,11.748471 C14.334567,12.0797288 14.8701888,12.0843832 15.2071532,11.7589321 L20.3597915,6.60629377 C20.5202874,6.44672726 20.6105532,6.22975436 20.6105532,6.00343509 L20.6105532,6 C20.6105532,5.8883595 20.5882251,5.77671901 20.5435689,5.67194869 C20.5007672,5.56783567 20.4377161,5.473259 20.358074,5.39370623 L15.2054356,0.241067919 C14.8684712,-0.0843832021 14.3328494,-0.0797287933 14.0015916,0.251528998 C13.6703338,0.582786789 13.6656794,1.1184086 13.9911306,1.45537301 L17.678702,5.14122695 L0.858773051,5.14122695 C0.384485791,5.14122695 0,5.52571274 0,6 Z" id="Arrows-slider-kursy" transform="translate(10.3053, 6) rotate(180) translate(-10.3053, -6)"></path>
        </g>
    </g>
</svg>