<?xml version="1.0" encoding="UTF-8"?>
<svg width="45px" height="45px" viewBox="0 0 45 45" version="1.1" xmlns="http://www.w3.org/2000/svg" xmlns:xlink="http://www.w3.org/1999/xlink">
    <title>icon-03</title>
    <g id="Page-1" stroke="none" stroke-width="1" fill="none" fill-rule="evenodd">
        <g id="icon-03" transform="translate(0, 0.0086)" fill="#000000" fill-rule="nonzero">
            <g id="861750">
                <path d="M0,35.625 L27.1875,35.625 L27.1875,44.780625 L32.8125,41.405625 L38.4375,44.780625 L38.4375,35.625 L45,35.625 L45,0 L0,0 L0,35.625 Z M36.8109375,29.263125 C36.7265625,29.3484375 36.6365625,29.4271875 36.5475,29.506875 C36.496875,29.551875 36.45,29.5996875 36.3975,29.6428125 C36.339375,29.6915625 36.2775,29.7328125 36.2175,29.77875 C35.4096992,30.3995731 34.4474852,30.7876359 33.435,30.9009375 L33.3834375,30.9084375 C33.002503,30.9463406 32.618747,30.9463406 32.2378125,30.9084375 L32.18625,30.9009375 C31.1738119,30.7874494 30.2116462,30.3994061 29.40375,29.77875 C29.34375,29.7328125 29.281875,29.690625 29.22375,29.6428125 C29.1721875,29.5996875 29.124375,29.551875 29.07375,29.506875 C28.9846875,29.4271875 28.895625,29.3484375 28.8103125,29.263125 C27.7679318,28.2125608 27.1832384,26.7924467 27.1837497,25.3125 C27.1837497,22.2103125 29.7065625,19.6875 32.80875,19.6875 C35.9109375,19.6875 38.4337681,22.2103125 38.4337681,25.3125 C38.4375113,26.7923542 37.8538572,28.2132198 36.8109375,29.263125 L36.8109375,29.263125 Z M36.5625,41.469375 L32.8125,39.219375 L29.0625,41.469375 L29.0625,31.809375 C29.094375,31.828125 29.13,31.8403125 29.1628125,31.858125 C29.41125,31.996875 29.6671875,32.124375 29.9315625,32.235 L29.9671875,32.248125 C31.7899486,33.001297 33.8369264,33.001297 35.6596875,32.248125 L35.6953125,32.235 C35.9596875,32.124375 36.215625,31.9978125 36.4640625,31.858125 C36.496875,31.8403125 36.5325,31.828125 36.564375,31.809375 L36.564375,41.469375 L36.5625,41.469375 L36.5625,41.469375 Z M1.875,1.875 L43.125,1.875 L43.125,33.75 L38.4375,33.75 L38.4375,30.256875 C39.6452836,28.8929964 40.3122195,27.1342864 40.3125,25.3125 C40.3125,21.1771875 36.9478125,17.8125 32.8125,17.8125 C28.6771875,17.8125 25.3125,21.1771875 25.3125,25.3125 C25.3125,27.2071875 26.0240625,28.935 27.1875,30.256875 L27.1875,33.75 L1.875,33.75 L1.875,1.875 Z" id="Shape"></path>
                <path d="M10.3125,5.625 L34.6875,5.625 L34.6875,7.5 L10.3125,7.5 L10.3125,5.625 Z M15,11.25 L30,11.25 L30,13.125 L15,13.125 L15,11.25 Z M5.625,28.125 L15.9375,28.125 L15.9375,30 L5.625,30 L5.625,28.125 Z" id="Shape"></path>
            </g>
        </g>
    </g>
</svg>