<?xml version="1.0" encoding="UTF-8"?>
<svg width="45px" height="46px" viewBox="0 0 45 46" version="1.1" xmlns="http://www.w3.org/2000/svg" xmlns:xlink="http://www.w3.org/1999/xlink">
    <title>icon-01</title>
    <g id="Page-1" stroke="none" stroke-width="1" fill="none" fill-rule="evenodd">
        <g id="icon-01" fill="#000000" fill-rule="nonzero">
            <g id="1331456">
                <path d="M43.9442038,31.2411111 L13.7458287,1.04273598 C12.2891229,-0.34757866 9.99693369,-0.34757866 8.5402279,1.04273598 L3.33315449,6.24980939 C1.89597447,7.68742349 1.89597447,10.0177961 3.33315449,11.4554102 L4.37280206,12.4950578 L4.37280206,12.4950578 L10.6165779,18.7388336 L10.6165779,18.7388336 L26.2260174,34.3482731 L26.2260174,34.3482731 L32.4697932,40.5920489 L32.4697932,40.5920489 L33.5094408,41.6316965 C34.9470549,43.0688765 37.2774275,43.0688765 38.7150416,41.6316965 L43.922115,36.4246231 C45.359295,34.987009 45.359295,32.6566364 43.922115,31.2190223 L43.9442038,31.2411111 Z M42.9030837,35.4055917 L37.6960102,40.6126651 C36.8219868,41.4468539 35.4466732,41.4468539 34.5726498,40.6126651 L34.0513534,40.0913688 L37.6960102,36.4467119 C37.9750453,36.1578056 37.9710547,35.6985745 37.6870411,35.4145609 C37.4030275,35.1305473 36.9437964,35.1265567 36.6548901,35.4055917 L33.0102332,39.0502486 L30.9279929,36.9665357 L32.4904094,35.4041192 C32.7694445,35.1152128 32.7654539,34.6559817 32.4814403,34.3719681 C32.1974267,34.0879545 31.7381956,34.0839639 31.4492893,34.362999 L29.8868727,35.9268881 L27.8046324,33.8446478 L29.3670489,32.2837038 C29.646084,31.9947975 29.6420934,31.5355664 29.3580798,31.2515528 C29.0740662,30.9675392 28.6148351,30.9635486 28.3259288,31.2425837 L26.7635122,32.8035276 L24.6812719,30.7212873 L28.3259288,27.0766304 C28.6049639,26.7877241 28.6009733,26.328493 28.3169597,26.0444794 C28.0329461,25.7604658 27.573715,25.7564752 27.2848086,26.0355103 L23.6386792,29.6786945 L21.5564388,27.5964542 L23.1188554,26.0340377 C23.3978905,25.7451313 23.3938999,25.2859002 23.1098863,25.0018866 C22.8258726,24.717873 22.3666415,24.7138824 22.0777352,24.9929175 L20.5153187,26.5553341 L18.4316057,24.4716211 L19.9940223,22.9092046 C20.2730574,22.6202983 20.2690668,22.1610672 19.9850532,21.8770535 C19.7010396,21.5930399 19.2418085,21.5890493 18.9529021,21.8680844 L17.3904856,23.430501 L15.3082453,21.3482606 L18.9529021,17.7036038 C19.2319372,17.4146974 19.2279466,16.9554663 18.943933,16.6714527 C18.6599194,16.3874391 18.2006883,16.3834485 17.911782,16.6624836 L14.2671251,20.3071405 L12.1848848,18.2249002 L13.7458287,16.6624836 C13.9372333,16.4776189 14.0139964,16.2038622 13.9466141,15.946432 C13.8792318,15.6890018 13.6781903,15.4879604 13.4207602,15.4205781 C13.16333,15.3531958 12.8895733,15.4299589 12.7047086,15.6213635 L11.1437646,17.18378 L9.06005168,15.1000671 L10.6224682,13.5435409 C10.9015033,13.2546345 10.8975127,12.7954034 10.6134991,12.5113898 C10.3294855,12.2273762 9.8702544,12.2233856 9.58134806,12.5024207 L8.02040411,14.0589469 L5.93669119,11.9767066 L9.58134806,8.33204972 C9.86038314,8.04314337 9.85639255,7.58391227 9.57237895,7.29989867 C9.28836534,7.01588506 8.82913424,7.01189447 8.5402279,7.29092955 L4.89557103,10.9355864 L4.37427465,10.41429 C3.51196664,9.55172158 3.51196664,8.15349802 4.37427465,7.29092955 L9.58134806,2.08385614 C10.4439165,1.22154814 11.8421401,1.22154814 12.7047086,2.08385614 L42.9030837,32.2822312 C43.7653917,33.1447997 43.7653917,34.5430233 42.9030837,35.4055917 Z M22.0688997,36.1094891 L22.0688997,36.1094891 C22.032465,36.0146912 21.9768131,35.9284558 21.9054423,35.8562039 L7.32681486,21.2775764 C6.63637713,20.5869566 5.69983332,20.1989551 4.72327816,20.1989551 C3.746723,20.1989551 2.81017919,20.5869566 2.11974145,21.2775764 L1.07862129,22.3186966 C0.388001479,23.0091343 3.59678397e-15,23.9456781 3.59678397e-15,24.9222333 C3.59678397e-15,25.8987884 0.388001479,26.8353322 1.07862129,27.52577 L15.6572488,42.1043974 C15.7295007,42.1757682 15.8157361,42.2314201 15.910534,42.2678548 L15.910534,42.2678548 L24.2777826,45.42803 C24.3611025,45.4593645 24.4494139,45.4751543 24.5384308,45.4751543 C24.7804185,45.4751543 25.0070474,45.3566016 25.1446516,45.157546 C25.2822558,44.9584903 25.313266,44.7045282 25.2276023,44.4782103 L22.0688997,36.1094891 Z M2.11532369,26.4772869 C1.70077156,26.0630003 1.46785626,25.5009478 1.46785626,24.9148703 C1.46785626,24.3287929 1.70077156,23.7667403 2.11532369,23.3524538 L3.15644385,22.3113336 C3.57073038,21.8967815 4.13278293,21.6638662 4.71886039,21.6638662 C5.30493785,21.6638662 5.8669904,21.8967815 6.28127693,22.3113336 L7.84369347,23.8737502 L3.67774023,28.0382308 L2.11532369,26.4772869 Z M4.71886039,29.0808236 L8.88481364,24.9148703 L20.338608,36.3686647 L16.1726548,40.534618 L4.71886039,29.0808236 Z M17.4994571,41.2900559 L21.0925734,37.6969397 L23.2734772,43.4724323 L17.4994571,41.2900559 Z" id="Shape"></path>
            </g>
        </g>
    </g>
</svg>