<?xml version="1.0" encoding="UTF-8"?>
<svg width="45px" height="39px" viewBox="0 0 45 39" version="1.1" xmlns="http://www.w3.org/2000/svg" xmlns:xlink="http://www.w3.org/1999/xlink">
    <title>icon-02</title>
    <g id="Page-1" stroke="none" stroke-width="1" fill="none" fill-rule="evenodd">
        <g id="icon-02" transform="translate(0, 0.4752)" fill="#282D35" fill-rule="nonzero">
            <g id="1484597">
                <path d="M3.54331163,14.2618143 L6.20079534,14.2618143 L6.20079534,16.8307177 L3.54331163,16.8307177 L3.54331163,14.2618143 Z M7.79527806,14.2618143 L10.3641815,14.2618143 L10.3641815,16.8307177 L7.79527806,16.8307177 L7.79527806,14.2618143 Z M3.54331163,18.3366201 L6.11221506,18.3366201 L6.11221506,20.9941038 L3.54331163,20.9941038 L3.54331163,18.3366201 Z M7.79527806,18.3366201 L10.4527618,18.3366201 L10.4527618,20.9941038 L7.79527806,20.9941038 L7.79527806,18.3366201 Z M3.54331163,22.5885865 L6.11221506,22.5885865 L6.11221506,25.15749 L3.54331163,25.15749 L3.54331163,22.5885865 Z M7.79527806,22.5885865 L10.4527618,22.5885865 L10.4527618,25.15749 L7.79527806,25.15749 L7.79527806,22.5885865 Z M3.54331163,26.5747996 L6.11221506,26.5747996 L6.11221506,29.2322833 L3.54331163,29.2322833 L3.54331163,26.5747996 Z M7.79527806,26.5747996 L10.4527618,26.5747996 L10.4527618,29.2322833 L7.79527806,29.2322833 L7.79527806,26.5747996 Z M3.54331163,30.8267786 L6.11221506,30.8267786 L6.11221506,33.395682 L3.54331163,33.395682 L3.54331163,30.8267786 Z M7.79527806,30.8267786 L10.4527618,30.8267786 L10.4527618,33.395682 L7.79527806,33.395682 L7.79527806,30.8267786 Z" id="Shape"></path>
                <path d="M45,10.1870084 L32.6870147,10.1870084 L32.6870147,0 L12.3129979,0 L12.3129979,10.1870084 L0,10.1870084 L0,38.5334638 L45,38.5334638 L45,10.1870084 Z M12.3129979,36.9389811 L1.50590243,36.9389811 L1.50590243,11.7815036 L12.3129979,11.7815036 L12.3129979,36.9389811 L12.3129979,36.9389811 Z M25.6889717,37.0275614 L19.3110158,37.0275614 L19.3110158,27.7263809 L25.6889717,27.7263809 L25.6889717,37.0275614 Z M17.8051133,26.1318856 L17.8051133,37.0275614 L13.9074806,37.0275614 L13.9074806,1.50590243 L31.0925194,1.50590243 L31.0039391,37.0275614 L27.2834669,37.0275614 L27.2834669,26.1318982 L17.8051133,26.1318982 L17.8051133,26.1318856 Z M43.4055173,36.9389811 L32.6870147,36.9389811 L32.6870147,11.7815036 L43.4055173,11.7815036 L43.4055173,36.9389811 Z" id="Shape"></path>
                <path d="M34.635831,14.2618143 L37.2047345,14.2618143 L37.2047345,16.8307177 L34.635831,16.8307177 L34.635831,14.2618143 Z M38.7992172,14.2618143 L41.4567009,14.2618143 L41.4567009,16.8307177 L38.7992172,16.8307177 L38.7992172,14.2618143 Z M34.5472382,18.3366201 L37.2047219,18.3366201 L37.2047219,20.9941038 L34.5472382,20.9941038 L34.5472382,18.3366201 Z M38.8877975,18.3366201 L41.4567009,18.3366201 L41.4567009,20.9941038 L38.8877975,20.9941038 L38.8877975,18.3366201 Z M34.5472382,22.5885865 L37.2047219,22.5885865 L37.2047219,25.15749 L34.5472382,25.15749 L34.5472382,22.5885865 Z M38.8877975,22.5885865 L41.4567009,22.5885865 L41.4567009,25.15749 L38.8877975,25.15749 L38.8877975,22.5885865 Z M34.5472382,26.5747996 L37.2047219,26.5747996 L37.2047219,29.2322833 L34.5472382,29.2322833 L34.5472382,26.5747996 Z M38.8877975,26.5747996 L41.4567009,26.5747996 L41.4567009,29.2322833 L38.8877975,29.2322833 L38.8877975,26.5747996 Z M34.5472382,30.8267786 L37.2047219,30.8267786 L37.2047219,33.395682 L34.5472382,33.395682 L34.5472382,30.8267786 Z M38.8877975,30.8267786 L41.4567009,30.8267786 L41.4567009,33.395682 L38.8877975,33.395682 L38.8877975,30.8267786 Z M15.9448773,12.4901584 L18.602361,12.4901584 L18.602361,15.0590619 L15.9448773,15.0590619 L15.9448773,12.4901584 Z M26.2204659,12.4901584 L28.8779496,12.4901584 L28.8779496,15.0590619 L26.2204659,15.0590619 L26.2204659,12.4901584 Z M15.9448773,16.5649643 L18.602361,16.5649643 L18.602361,19.222448 L15.9448773,19.222448 L15.9448773,16.5649643 Z M26.3090587,16.5649643 L28.8779622,16.5649643 L28.8779622,19.222448 L26.3090587,19.222448 L26.3090587,16.5649643 Z M15.9448773,20.8169307 L18.602361,20.8169307 L18.602361,23.3858342 L15.9448773,23.3858342 L15.9448773,20.8169307 Z M26.3090587,20.8169307 L28.8779622,20.8169307 L28.8779622,23.3858342 L26.3090587,23.3858342 L26.3090587,20.8169307 Z M21.0826716,12.4015782 L23.7401553,12.4015782 L23.7401553,15.0590619 L21.0826716,15.0590619 L21.0826716,12.4015782 Z M15.9448773,8.32677229 L18.602361,8.32677229 L18.602361,10.8956757 L15.9448773,10.8956757 L15.9448773,8.32677229 Z M26.2204659,8.32677229 L28.8779496,8.32677229 L28.8779496,10.8956757 L26.2204659,10.8956757 L26.2204659,8.32677229 Z M21.0826716,8.32677229 L23.7401553,8.32677229 L23.7401553,10.8956757 L21.0826716,10.8956757 L21.0826716,8.32677229 Z M15.9448773,4.16338615 L18.602361,4.16338615 L18.602361,6.73228958 L15.9448773,6.73228958 L15.9448773,4.16338615 Z M26.2204659,4.16338615 L28.8779496,4.16338615 L28.8779496,6.73228958 L26.2204659,6.73228958 L26.2204659,4.16338615 Z M21.0826716,4.16338615 L23.7401553,4.16338615 L23.7401553,6.73228958 L21.0826716,6.73228958 L21.0826716,4.16338615 Z M21.0826716,16.5649643 L23.7401553,16.5649643 L23.7401553,19.1338677 L21.0826716,19.1338677 L21.0826716,16.5649643 Z M21.0826716,20.7283505 L23.7401553,20.7283505 L23.7401553,23.3858342 L21.0826716,23.3858342 L21.0826716,20.7283505 Z" id="Shape"></path>
            </g>
        </g>
    </g>
</svg>