<?xml version="1.0" encoding="UTF-8"?>
<svg width="20px" height="20px" viewBox="0 0 20 20" version="1.1" xmlns="http://www.w3.org/2000/svg" xmlns:xlink="http://www.w3.org/1999/xlink">
    <title>Instagram</title>
    <g id="Page-1" stroke="none" stroke-width="1" fill="none" fill-rule="evenodd">
        <g id="Instagram" transform="translate(0, 0.0002)" fill="#000000" fill-rule="nonzero">
            <path d="M10,4.86511 C7.16407856,4.86511 4.86511,7.16407856 4.86511,10 C4.86511,12.8359214 7.16407856,15.13489 10,15.13489 C12.8359214,15.13489 15.13489,12.8359214 15.13489,10 C15.13489,8.63813437 14.5939293,7.33203959 13.6309448,6.36905517 C12.6679604,5.40607075 11.3618656,4.86511 10,4.86511 L10,4.86511 Z M10,13.33357 C8.65168284,13.33357 7.43613248,12.5213546 6.92015945,11.2756696 C6.40418642,10.0299847 6.68940305,8.59614318 7.64281298,7.64274469 C8.5962229,6.68934621 10.0300678,6.40414678 11.2757466,6.92013476 C12.5214253,7.43612274 13.33361,8.65168284 13.33361,10 C13.3337161,10.8841572 12.9825303,11.7321315 12.357333,12.3573213 C11.7321357,12.9825111 10.8841572,13.3336867 10,13.33357 L10,13.33357 Z" id="Shape"></path>
            <path d="M19.93946,5.87719 C19.9230769,5.04765238 19.7660235,4.2269117 19.47499,3.44993 C19.2234525,2.7828155 18.8298754,2.17836783 18.32153,1.67847 C17.8223723,1.16961223 17.2180742,0.77594464 16.5509,0.525 C15.7739597,0.233783146 14.953177,0.0767270218 14.12361,0.06054 C13.05736,0.012 12.71651,0 10.00083,0 C7.28515,0 6.94402,0.01126 5.87718,0.06054 C5.04764752,0.0769324136 4.22691224,0.233982042 3.44993,0.525 C2.78262882,0.776173534 2.17810648,1.16980273 1.67847,1.67847 C1.16933386,2.1777089 0.775653215,2.78234695 0.52507,3.44993 C0.234055416,4.22691665 0.0770059183,5.04765464 0.06061,5.87719 C0.01132,6.94341 0,7.28432 0,10 C0,12.71568 0.01132,13.05653 0.06059,14.12276 C0.0769888035,14.9523131 0.234045093,15.7730682 0.52507,16.55007 C0.775725472,17.2176165 1.16939651,17.8222398 1.67847,18.32153 C2.17835138,18.829881 2.782805,19.2234416 3.44993,19.47493 C4.22693894,19.7658554 5.04765712,19.9229086 5.87718,19.93941 C6.94402,19.9879 7.28432,20 10,20 C12.71568,20 13.05658,19.98868 14.12281,19.93941 C14.9523466,19.9230081 15.7730846,19.7659518 16.55007,19.47493 C17.8935289,18.9555307 18.9555632,17.8935182 19.47499,16.55007 C19.7663397,15.7731598 19.9234034,14.9523481 19.93946,14.12276 C19.98796,13.05576 19.99922,12.71568 19.99922,10 C19.99922,7.28432 19.98796,6.94341 19.93946,5.87719 Z M18.14046,14.04125 C18.1327621,14.6753866 18.0164103,15.3035104 17.79646,15.89833 C17.4598795,16.7703765 16.7704054,17.4595456 15.89821,17.79574 C15.3035301,18.0161972 14.6753177,18.1325654 14.04113,18.13974 C12.98705,18.18818 12.67045,18.19789 9.99994,18.19789 C7.32943,18.19789 7.01371,18.18818 5.95994,18.13974 C5.32576,18.132486 4.69756111,18.0161203 4.10286,17.79574 C3.66850703,17.6352167 3.2755168,17.3796555 2.95262,17.04774 C2.62020985,16.7255783 2.36456094,16.3327402 2.20462,15.89834 C1.98414408,15.3036653 1.86777527,14.6754496 1.86062,14.04126 C1.81212,12.98718 1.80247,12.67058 1.80247,10.00007 C1.80247,7.32956 1.81296,7.01384 1.86062,5.95887 C1.8686094,5.32478802 1.98495224,4.69673961 2.20462,4.10187 C2.36513392,3.66751231 2.62069637,3.27452012 2.95262,2.95163 C3.27495223,2.61902816 3.66810866,2.3633589 4.10286,2.20363 C4.69754203,1.9831805 5.32575303,1.86681256 5.95994,1.85963 C7.01401,1.81114 7.33062,1.80148 9.99994,1.80148 C12.66926,1.80148 12.98617,1.81197 14.04113,1.85963 C14.6752381,1.86761853 15.3033129,1.98396125 15.89821,2.20363 C16.770698,2.53982438 17.4602656,3.22939201 17.79646,4.10188 C18.0169037,4.69653588 18.1332717,5.32471962 18.14046,5.95888 C18.18895,7.01388 18.19861,7.32962 18.19861,10.00008 C18.19861,12.67054 18.18897,12.98628 18.14048,14.04125 L18.14046,14.04125 Z" id="Shape"></path>
            <path d="M15.33861,3.462 L15.33817,3.462 C14.6755872,3.46212149 14.1385393,3.99931722 14.1386,4.66189998 C14.1386608,5.32448274 14.6758072,5.86157998 15.33839,5.86157998 C16.0009728,5.86157998 16.5381192,5.32448274 16.53818,4.66189998 C16.5382407,3.99931722 16.0011928,3.46212149 15.33861,3.462 Z" id="Path"></path>
        </g>
    </g>
</svg>