<?xml version="1.0" encoding="UTF-8"?>
<svg width="174px" height="45px" viewBox="0 0 174 45" version="1.1" xmlns="http://www.w3.org/2000/svg" xmlns:xlink="http://www.w3.org/1999/xlink">
    <title>Logo-header</title>
    <g id="Page-1" stroke="none" stroke-width="1" fill="none" fill-rule="evenodd">
        <g id="Logo-header">
            <path d="M168.282197,22.0892941 L168.282197,14.9710454 C168.282197,13.8732173 167.998345,12.9357027 167.463448,12.1508651 C166.926139,11.3633649 166.189582,10.7672259 165.254227,10.3447138 C164.318471,9.92230221 163.252545,9.71436195 162.04404,9.70798157 C161.023781,9.71436195 160.107668,9.83785003 159.295501,10.0783956 C158.483031,10.3186397 157.800933,10.637056 157.248653,11.0333935 L157.560237,12.0862072 C157.891916,11.8457119 158.281672,11.6313913 158.749802,11.4298816 C159.210898,11.2284725 159.717761,11.065848 160.270142,10.9489413 C160.829003,10.8256039 161.400927,10.7605441 162.005004,10.7605441 C162.973114,10.7605441 163.843811,10.9228671 164.604433,11.2478648 C165.364352,11.5728625 165.962149,12.0600326 166.404355,12.7034466 C166.839276,13.3402794 167.06701,14.1394854 167.073541,15.0881029 L167.073541,15.620438 L167.073541,17.3494218 L167.073541,18.4410202 L167.073541,19.7014728 L167.073541,21.7939376 C167.06701,22.6516723 166.904336,23.4055625 166.59235,24.0551058 C166.280716,24.7113308 165.864735,25.2507999 165.35139,25.6925536 C164.831715,26.1344581 164.266323,26.4593051 163.655413,26.6868889 C163.038174,26.9077406 162.420985,27.018267 161.810025,27.018267 C160.959023,27.018267 160.198802,26.8558937 159.529364,26.543908 C158.866407,26.2320227 158.340201,25.7901183 157.956725,25.2183454 C157.566919,24.6399911 157.372091,23.9576919 157.36556,23.1583854 C157.372091,22.2747272 157.5735,21.5340499 157.969687,20.9297722 C158.366275,20.325394 158.905443,19.8575661 159.594424,19.526188 C160.283104,19.1882286 161.075628,18.9870204 161.965968,18.9089989 L165.588921,18.5770179 L165.588921,17.5281731 L165.588921,17.492252 L161.810025,17.8562856 C161.056437,17.9210942 160.334951,18.0706062 159.659484,18.3045704 C158.983615,18.5385849 158.385919,18.8635323 157.859462,19.2857932 C157.332954,19.7080541 156.917375,20.2409419 156.618201,20.8713942 C156.319277,21.5015451 156.163485,22.2551841 156.157055,23.1196509 C156.170016,24.1136345 156.41011,24.9777998 156.891351,25.7186278 C157.372091,26.4593051 158.034897,27.0376091 158.87952,27.447059 C159.717761,27.8563582 160.685872,28.0642482 161.77119,28.07093 C162.408023,28.07093 163.026669,27.9772338 163.62321,27.7979299 C164.215481,27.6199323 164.941488,27.3634609 165.433682,27.0376091 C167.367893,25.7573623 168.090936,24.3829671 168.282197,22.0892941" id="Fill-1" fill="#1A1919"></path>
            <path d="M152.859953,27.7199084 L152.859953,15.0101818 C152.853573,13.8732173 152.586953,12.9177673 152.07401,12.1250924 C151.554084,11.3389988 150.846012,10.741001 149.929447,10.3317521 C149.019866,9.91577111 147.973734,9.70798157 146.77804,9.70798157 C145.718795,9.71436195 144.770077,9.85724238 143.938517,10.1497353 C143.106857,10.4356971 142.437519,10.8318838 141.924275,11.3452787 C141.410729,11.8586736 141.105425,12.4565207 141.008011,13.1387697 C140.741844,12.3202216 140.332394,11.6638458 139.786394,11.1568815 C139.240544,10.6501685 138.59713,10.2861851 137.850073,10.0521707 C137.102663,9.81820648 136.297077,9.70145046 135.432912,9.70798157 C134.3281,9.71436195 133.398875,9.85724238 132.632425,10.1367736 C131.871954,10.4097737 131.280638,10.7605441 130.851745,11.1893361 C130.423054,11.6248099 130.156635,12.0732957 130.05264,12.5538844 L130.013503,12.5538844 L130.013503,10.058752 L128.844185,10.058752 L128.844185,27.7199084 L130.05264,27.7199084 L130.05264,15.049067 C130.05907,14.1133107 130.292783,13.3272172 130.747901,12.6904849 C131.202767,12.0536019 131.826537,11.5728625 132.619313,11.2478648 C133.405306,10.9228671 134.308607,10.7605441 135.315854,10.7605441 C136.323151,10.7605441 137.193848,10.9228671 137.921664,11.2478648 C138.65581,11.5728625 139.221052,12.0536019 139.623769,12.6904849 C140.020408,13.3272172 140.221616,14.1133107 140.228047,15.049067 L140.228047,27.7199084 L141.436803,27.7199084 L141.436803,15.049067 C141.443234,14.1133107 141.677349,13.3272172 142.132064,12.6904849 C142.587031,12.0536019 143.210952,11.5728625 144.003627,11.2478648 C144.789721,10.9228671 145.693023,10.7605441 146.700018,10.7605441 C147.707265,10.7605441 148.577861,10.9228671 149.318789,11.2478648 C150.059467,11.5728625 150.63139,12.0536019 151.034008,12.6904849 C151.443558,13.3272172 151.644917,14.1133107 151.651197,15.049067 L151.651197,27.7199084 L152.859953,27.7199084 Z" id="Fill-2" fill="#1A1919"></path>
            <path d="M126.572868,10.0198668 C126.31298,9.94179504 126.02727,9.88984765 125.721815,9.8639242 C125.416361,9.83785003 125.13693,9.8248883 124.896535,9.8248883 C124.058193,9.83146964 123.297972,9.96771849 122.622254,10.2276564 C121.946386,10.4876947 121.361651,10.845147 120.8679,11.2932811 C120.367467,11.7481473 119.97128,12.2551116 119.672356,12.8203534 C119.373131,13.3857459 119.178354,13.9704805 119.08717,14.5812391 L119.048586,14.5812391 L119.048586,10.058752 L117.839679,10.058752 L117.839679,27.7199084 L119.048586,27.7199084 L119.048586,18.6749844 C119.055167,17.4143812 119.204378,16.3162516 119.503301,15.3675336 C119.795694,14.4189161 120.211675,13.6261407 120.737881,12.9894084 C121.270618,12.3523748 121.881577,11.8717861 122.583219,11.5533195 C123.285011,11.2347524 124.045231,11.0724294 124.85765,11.0724294 C125.098045,11.0724294 125.344719,11.0920729 125.604758,11.124226 C125.858366,11.1568815 126.079267,11.2088289 126.261134,11.2673577 L126.572868,10.0198668 Z" id="Fill-3" fill="#1A1919"></path>
            <path d="M114.758506,18.9089989 C114.752226,17.5832855 114.518211,16.3682492 114.057115,15.2505766 C113.595567,14.1329543 112.945723,13.1646932 112.113911,12.3330326 C111.282402,11.5079032 110.301179,10.8644891 109.183406,10.4032426 C108.065884,9.94837638 106.844166,9.71436195 105.518452,9.70798157 C104.19304,9.71436195 102.977853,9.94837638 101.860532,10.4032426 C100.742609,10.8644891 99.7745988,11.5079032 98.9426368,12.3330326 C98.1176581,13.1646932 97.4741435,14.1329543 97.0129975,15.2505766 C96.5579806,16.3682492 96.3241671,17.5832855 96.3177365,18.9089989 C96.3241671,20.2279801 96.5579806,21.4495978 97.0129975,22.560689 C97.4741435,23.67173 98.1176581,24.6399911 98.9426368,25.4652713 C99.7745988,26.2838194 100.742609,26.9272335 101.860532,27.3820996 C102.977853,27.8305854 104.19304,28.0642482 105.518452,28.07093 C106.844166,28.0642482 108.065884,27.8305854 109.183406,27.3820996 C110.301179,26.9272335 111.282402,26.2838194 112.113911,25.4652713 C112.945723,24.6399911 113.595567,23.67173 114.057115,22.560689 C114.518211,21.4495978 114.752226,20.2279801 114.758506,18.9089989 Z M113.54985,18.9089989 C113.543319,20.0720375 113.34206,21.1506742 112.939041,22.1317463 C112.536474,23.1196509 111.971081,23.9706536 111.243366,24.7049505 C110.52203,25.432666 109.671028,25.9980083 108.696236,26.4009271 C107.728125,26.8103267 106.668579,27.0118364 105.518452,27.018267 C104.375057,27.0118364 103.315813,26.8103267 102.347703,26.4009271 C101.379441,25.9980083 100.534668,25.432666 99.8137854,24.7049505 C99.0923498,23.9706536 98.5335386,23.1196509 98.1306198,22.1317463 C97.7341819,21.1506742 97.5327727,20.0720375 97.5263924,18.9089989 C97.5327727,17.7457592 97.7341819,16.6671728 98.1306198,15.68595 C98.5335386,14.6983468 99.0923498,13.8405618 99.8137854,13.1128463 C100.534668,12.3848795 101.379441,11.8196377 102.347703,11.4101879 C103.315813,11.0073193 104.375057,10.8061111 105.518452,10.7994293 C106.668579,10.8061111 107.728125,11.0073193 108.696236,11.4101879 C109.671028,11.8196377 110.52203,12.3848795 111.243366,13.1128463 C111.971081,13.8405618 112.536474,14.6983468 112.939041,15.68595 C113.34206,16.6671728 113.543319,17.7457592 113.54985,18.9089989 L113.54985,18.9089989 Z" id="Fill-4" fill="#1A1919"></path>
            <path d="M98.9577588,0.467978618 C98.6199501,0.331528814 98.1975887,0.21447136 97.6841938,0.130169898 C97.1774808,0.0455670002 96.6252007,-3.56971345e-15 96.0337842,-3.56971345e-15 C95.046181,-3.56971345e-15 94.1300181,0.136550283 93.2850943,0.409449891 C92.4470534,0.682299261 91.713058,1.10466064 91.0892874,1.67643355 C90.4588351,2.24182607 89.9713636,2.96954162 89.6270238,3.85335051 C89.2761026,4.73057806 89.1009686,5.77676022 89.0942868,6.99164577 L89.0942868,10.058752 L85.7805058,10.058752 L85.7805058,11.111415 L89.0942868,11.111415 L89.0942868,27.7199084 L90.3027417,27.7199084 L90.3027417,11.111415 L96.3067843,11.111415 L96.5797844,10.058752 L90.3027417,10.058752 L90.3027417,7.03078215 C90.3094738,5.98465023 90.4588351,5.08149923 90.7512275,4.32770951 C91.0435697,3.5739198 91.4528689,2.95014927 91.9729456,2.46925916 C92.4991515,1.98208915 93.1096589,1.62463688 93.8052213,1.39720379 C94.5004321,1.16318937 95.2605017,1.05271325 96.0726694,1.05271325 C96.3782748,1.05271325 96.6903107,1.07873719 97.0148563,1.13058409 C97.3397033,1.18258172 97.651689,1.24764155 97.9376509,1.319132 C98.2236127,1.39720379 98.4576271,1.47492392 98.6457229,1.55299571 L98.9577588,0.467978618 Z" id="Fill-5" fill="#1A1919"></path>
            <path d="M84.7228189,18.9089989 C84.7165892,17.5832855 84.4823236,16.3682492 84.0211775,15.2505766 C83.5597802,14.1329543 82.9100863,13.1646932 82.0779735,12.3330326 C81.2466144,11.5079032 80.2652409,10.8644891 79.1478697,10.4032426 C78.0298455,9.94837638 76.8082278,9.71436195 75.4826652,9.70798157 C74.157404,9.71436195 72.9423678,9.94837638 71.8245947,10.4032426 C70.7069221,10.8644891 69.7387112,11.5079032 68.9070004,12.3330326 C68.0816198,13.1646932 67.4383062,14.1329543 66.9772104,15.2505766 C66.5221935,16.3682492 66.2882293,17.5832855 66.2816479,18.9089989 C66.2882293,20.2279801 66.5221935,21.4495978 66.9772104,22.560689 C67.4383062,23.67173 68.0816198,24.6399911 68.9070004,25.4652713 C69.7387112,26.2838194 70.7069221,26.9272335 71.8245947,27.3820996 C72.9423678,27.8305854 74.157404,28.0642482 75.4826652,28.07093 C76.8082278,28.0642482 78.0298455,27.8305854 79.1478697,27.3820996 C80.2652409,26.9272335 81.2466144,26.2838194 82.0779735,25.4652713 C82.9100863,24.6399911 83.5597802,23.67173 84.0211775,22.560689 C84.4823236,21.4495978 84.7165892,20.2279801 84.7228189,18.9089989 Z M83.5140625,18.9089989 C83.5076319,20.0720375 83.3061223,21.1506742 82.9032537,22.1317463 C82.5006364,23.1196509 81.9352941,23.9706536 81.2075785,24.7049505 C80.4859922,25.432666 79.6349393,25.9980083 78.6602978,26.4009271 C77.6920367,26.8103267 76.6329431,27.0118364 75.4826652,27.018267 C74.3391194,27.0118364 73.2801262,26.8103267 72.3121666,26.4009271 C71.3438051,25.9980083 70.4988813,25.432666 69.7779983,24.7049505 C69.056412,23.9706536 68.4977013,23.1196509 68.0945815,22.1317463 C67.6984953,21.1506742 67.4968852,20.0720375 67.4903038,18.9089989 C67.4968852,17.7457592 67.6984953,16.6671728 68.0945815,15.68595 C68.4977013,14.6983468 69.056412,13.8405618 69.7779983,13.1128463 C70.4988813,12.3848795 71.3438051,11.8196377 72.3121666,11.4101879 C73.2801262,11.0073193 74.3391194,10.8061111 75.4826652,10.7994293 C76.6329431,10.8061111 77.6920367,11.0073193 78.6602978,11.4101879 C79.6349393,11.8196377 80.4859922,12.3848795 81.2075785,13.1128463 C81.9352941,13.8405618 82.5006364,14.6983468 82.9032537,15.68595 C83.3061223,16.6671728 83.5076319,17.7457592 83.5140625,18.9089989 L83.5140625,18.9089989 Z" id="Fill-6" fill="#CD305E"></path>
            <polygon id="Fill-7" fill="#CD305E" points="62.6876827 27.7199084 62.6876827 10.058752 61.4791775 10.058752 61.4791775 27.7199084"></polygon>
            <path d="M57.2576738,21.5991098 L57.2576738,-3.56971345e-15 L56.0489174,-3.56971345e-15 L56.0489174,7.79039961 L56.0489174,11.9301641 L56.0489174,13.2166908 L56.0489174,18.0372976 L56.0489174,23.2412299 C56.0489174,23.7966248 55.9540657,24.4897758 55.0923621,25.3666014 C54.9455127,25.515812 54.7897208,25.6514077 54.6260916,25.7576135 C54.0423617,26.1356136 53.3849811,26.4399127 52.6505838,26.6673458 C51.9229687,26.8947789 51.1428536,27.0118364 50.3180256,27.018267 C49.1613674,27.0118364 48.0955919,26.8103267 47.1207495,26.4009271 C46.146108,25.9980083 45.301335,25.432666 44.5737702,24.7049505 C43.8525858,23.9706536 43.2937746,23.1196509 42.8974371,22.1317463 C42.4944179,21.1506742 42.2930589,20.0720375 42.2866283,18.9089989 C42.2930589,17.7457592 42.4944179,16.6671728 42.8974371,15.68595 C43.2937746,14.6983468 43.8525858,13.8405618 44.5737702,13.1128463 C45.301335,12.3848795 46.146108,11.8196377 47.1207495,11.4101879 C48.0955919,11.0073193 49.1613674,10.8061111 50.3180256,10.7994293 C51.149435,10.8061111 51.9293993,10.9164867 52.6440024,11.1308074 C53.3522252,11.3434199 53.9964933,11.6323458 54.564448,11.9914057 L54.564448,10.7484364 C54.0333689,10.4438359 53.4232635,10.2004267 52.735036,10.0132855 C51.9943587,9.81820648 51.1754589,9.71436195 50.2788892,9.70798157 C48.9662883,9.71436195 47.7511014,9.94837638 46.6401106,10.4032426 C45.5223375,10.8644891 44.5478467,11.5079032 43.7225666,12.3330326 C42.8907553,13.1646932 42.2409106,14.1329543 41.7795133,15.2505766 C41.3184175,16.3682492 41.0845538,17.5832855 41.0780227,18.9089989 C41.0845538,20.247473 41.3247979,21.4755212 41.7926258,22.5932943 C42.2606044,23.7107659 42.9103989,24.6725964 43.7419589,25.4911947 C44.5737702,26.3100443 45.5352992,26.9401952 46.6401106,27.3885303 C47.7382401,27.8369658 48.9272524,28.0642482 50.2008174,28.07093 C51.1300426,28.0642482 51.9681338,27.9538726 52.7286053,27.7394012 C53.4890769,27.5250806 54.1470101,27.2475589 54.7039624,26.8947789 C55.2639291,26.5398888 55.9137738,26.1541016 56.2256591,25.7315895 C57.231047,24.5064049 57.2576738,23.2590648 57.2576738,21.5991098" id="Fill-8" fill="#CD305E"></path>
            <path d="M32.0296825,27.0179656 C30.941651,27.0080182 29.9830861,26.8134918 29.1539878,26.4464941 C28.3024827,26.0629676 27.6334466,25.5043072 27.1524058,24.7700103 C26.678298,24.0357636 26.4313721,23.1324619 26.4249917,22.0669377 L26.4249917,10.058752 L25.2163358,10.058752 L25.2163358,22.1449592 C25.222465,23.0935767 25.3917713,23.9316679 25.7362618,24.6659146 C26.0740705,25.4002115 26.5481281,26.0174006 27.1589369,26.5243649 C27.769595,27.031078 28.4911813,27.4147049 29.309629,27.6744921 C30.1350599,27.9409108 31.0317802,28.07093 32.000192,28.07093 L32.0296825,28.0705281 L32.0296825,27.0179656 Z" id="Fill-9" fill="#CD305E"></path>
            <path d="M22.9475815,10.058752 L16.2028616,10.058752 L16.2028616,5.30235097 L15.0333924,5.92612151 L15.0333924,10.058752 L11.4852453,10.058752 L11.4852453,11.111415 L15.0333924,11.111415 L15.0333924,23.8212923 C15.0399737,24.7180629 15.2085766,25.4652713 15.5399547,26.0564365 C15.8649524,26.6543841 16.313388,27.0961378 16.8787805,27.3950614 C17.4507041,27.6874538 18.0936661,27.8369658 18.8148505,27.8369658 C19.1916449,27.8369658 19.5490971,27.8108916 19.8935877,27.759095 C20.2316978,27.7005663 20.52404,27.596571 20.7642841,27.447059 L20.9589612,26.2775897 C20.7188679,26.4335324 20.4134132,26.5569702 20.0428485,26.647853 C19.6728364,26.7388363 19.2895109,26.7842526 18.8927213,26.7842526 C18.3927403,26.7842526 17.9443048,26.6868889 17.5350056,26.4853793 C17.132137,26.2775897 16.8136704,25.9590226 16.5732756,25.5106876 C16.3326296,25.0689338 16.2092923,24.4970102 16.2028616,23.7822564 L16.2028616,11.111415 L22.5965598,11.111415 L22.9475815,10.058752 Z" id="Fill-10" fill="#CD305E"></path>
            <path d="M10.6046015,23.2754428 C10.5981708,22.3592799 10.3834483,21.5666552 9.96133811,20.8906359 C9.53877577,20.221449 8.94766075,19.6432455 8.18075859,19.1623052 C7.41415787,18.6749844 6.50442552,18.252623 5.45799217,17.8951708 C4.73715941,17.654776 4.11308744,17.3753453 3.57361836,17.0569289 C3.04103207,16.7451943 2.62490036,16.3485555 2.32627825,15.8678161 C2.027204,15.3935575 1.8780939,14.79561 1.8715628,14.0744255 C1.8780939,13.4311622 2.04031644,12.8788821 2.35205099,12.4174848 C2.66408697,11.9498076 3.09313017,11.5922047 3.63872843,11.3389988 C4.18442717,11.0853911 4.80176708,10.9553719 5.49702807,10.9553719 C6.00404259,10.9553719 6.49151403,11.0140011 6.94622949,11.1308074 C7.40762676,11.2413337 7.82345704,11.3844151 8.19372032,11.5599008 C8.56398359,11.7351856 8.87601958,11.9235828 9.12279478,12.1250924 L9.51275184,11.0333935 C9.2659264,10.845147 8.93469902,10.6695106 8.53152904,10.4940751 C8.1290624,10.3251708 7.66736369,10.1821899 7.15427022,10.0718142 C6.64072461,9.96133811 6.08844453,9.9094912 5.49702807,9.90280938 C4.58091534,9.9094912 3.76231699,10.0783956 3.04103207,10.4162043 C2.31969691,10.7475824 1.75435463,11.2347524 1.33867507,11.8586736 C0.922694074,12.489126 0.708222714,13.2363344 0.70179209,14.1133107 C0.708222714,15.0166124 0.890189279,15.7767825 1.25422289,16.3942732 C1.61790482,17.0115126 2.15094327,17.5378692 2.83967315,17.9666612 C3.52820208,18.395604 4.36674541,18.7723983 5.34108544,19.1036257 C6.14044215,19.3767765 6.84223424,19.7016235 7.45304305,20.0915303 C8.05742123,20.4813367 8.53152904,20.9362029 8.87601958,21.4689399 C9.21392878,22.0018276 9.38926376,22.6126364 9.3960963,23.3142778 C9.38926376,23.8993138 9.27260822,24.412558 9.04517513,24.8479314 C8.81090951,25.2898358 8.49917496,25.6535178 8.09645713,25.9460609 C7.69358858,26.2384031 7.23214106,26.4593051 6.71206434,26.6024367 C6.19897088,26.7516473 5.6466908,26.8232885 5.06823607,26.8232885 C4.02225487,26.8167574 3.08644835,26.6412717 2.2547878,26.2904007 C1.42935692,25.9393288 0.675717919,25.4456277 0,24.7959337 L0.272849369,26.3164749 C0.812167723,26.7712908 1.4747732,27.1481355 2.26116819,27.4339465 C3.04741246,27.7199084 3.98321897,27.8694204 5.06823607,27.8760017 C5.84166933,27.8760017 6.56285377,27.7782864 7.23214106,27.5770782 C7.90132788,27.3820996 8.48596204,27.0897574 8.99322775,26.6998004 C9.49335949,26.3164749 9.88984765,25.8355346 10.1756587,25.2637616 C10.4550392,24.6854074 10.5981708,24.0291823 10.6046015,23.2754428" id="Fill-11" fill="#CD305E"></path>
            <path d="M58.2103575,42.4578437 C58.2103575,42.4850231 58.2028951,42.5096906 58.1879156,42.5322983 C58.1734848,42.5525447 58.1512076,42.5704801 58.1192184,42.5839944 C58.0894788,42.5976595 58.0453084,42.6087624 57.991042,42.6177552 C57.9345807,42.6268485 57.8630302,42.6312696 57.776994,42.6312696 C57.6955121,42.6312696 57.6265953,42.6268485 57.5727678,42.6177552 C57.5161968,42.6087624 57.4718619,42.5976595 57.4374584,42.5839944 C57.4054143,42.5704801 57.3808325,42.5525447 57.370901,42.5322983 C57.3584455,42.5096906 57.3511478,42.4850231 57.3511478,42.4578437 L57.3511478,36.4831408 C57.3511478,36.4560619 57.3584455,36.4337054 57.370901,36.4110977 C57.3808325,36.3885906 57.4054143,36.3705044 57.4374584,36.3546791 C57.4718619,36.3388537 57.5161968,36.3277508 57.5727678,36.3209183 C57.6265953,36.3140857 57.6955121,36.3119757 57.776994,36.3119757 C57.8630302,36.3119757 57.9345807,36.3140857 57.991042,36.3209183 C58.0453084,36.3277508 58.0894788,36.3388537 58.1192184,36.3546791 C58.1512076,36.3705044 58.1734848,36.3885906 58.1879156,36.4110977 C58.2028951,36.4337054 58.2103575,36.4560619 58.2103575,36.4831408 L58.2103575,42.4578437 Z M58.3406738,34.4682957 C58.3406738,34.6803556 58.2986982,34.8246427 58.2176552,34.8988461 C58.1364475,34.9731499 57.9860488,35.0114825 57.7696963,35.0114825 C57.5578432,35.0114825 57.4127669,34.9754609 57.3340284,34.9011068 C57.2551802,34.8290637 57.2156738,34.6871881 57.2156738,34.4751282 C57.2156738,34.2655301 57.2551802,34.1212429 57.3363878,34.0470898 C57.4200646,33.972585 57.5675003,33.9342525 57.7843466,33.9342525 C57.9960352,33.9342525 58.1412761,33.9701735 58.2199597,34.0446281 C58.3013319,34.1168721 58.3406738,34.2588482 58.3406738,34.4682957 L58.3406738,34.4682957 Z" id="Fill-12" fill="#1A1919"></path>
            <path d="M67.9218087,42.4578437 C67.9218087,42.4850231 67.9151269,42.5096906 67.9014619,42.5322983 C67.8878973,42.5525447 67.8677011,42.5704801 67.8382106,42.5839944 C67.8090216,42.5976595 67.7708398,42.6087624 67.7188924,42.6177552 C67.6693063,42.6268485 67.6063565,42.6312696 67.5317512,42.6312696 C67.4532775,42.6312696 67.3879162,42.6268485 67.3359186,42.6177552 C67.2860813,42.6087624 67.2456387,42.5976595 67.2184592,42.5839944 C67.1892702,42.5704801 67.1688731,42.5525447 67.1555095,42.5322983 C67.1420956,42.5096906 67.1351626,42.4850231 67.1351626,42.4578437 L67.1351626,38.9128115 C67.1351626,38.5431008 67.1059233,38.2433232 67.0497056,38.0112179 C66.9932869,37.7813733 66.9055692,37.5831292 66.7926314,37.4186459 C66.6775835,37.2517511 66.531337,37.1255501 66.3532891,37.0355716 C66.1751407,36.945141 65.9655426,36.9001266 65.7288152,36.9001266 C65.4246668,36.9001266 65.1203174,37.0062319 64.818681,37.2225119 C64.5143818,37.4389928 64.1940564,37.7542943 63.8605682,38.1735409 L63.8605682,42.4578437 C63.8605682,42.4850231 63.8537357,42.5096906 63.8406232,42.5322983 C63.8269582,42.5525447 63.8067117,42.5704801 63.777372,42.5839944 C63.7501926,42.5976595 63.7094486,42.6087624 63.6600131,42.6177552 C63.6083672,42.6268485 63.5428552,42.6312696 63.4637786,42.6312696 C63.3895752,42.6312696 63.326525,42.6268485 63.2767881,42.6177552 C63.2249915,42.6087624 63.1843981,42.5976595 63.1528981,42.5839944 C63.1235584,42.5704801 63.1011015,42.5525447 63.0919579,42.5322983 C63.080855,42.5096906 63.0741732,42.4850231 63.0741732,42.4578437 L63.0741732,36.4831408 C63.0741732,36.4560619 63.080855,36.4337054 63.0919579,36.4110977 C63.1011015,36.3885906 63.1235584,36.3705044 63.1528981,36.3546791 C63.1843981,36.3388537 63.2226805,36.3277508 63.270257,36.3209183 C63.3152714,36.3140857 63.3759102,36.3119757 63.450415,36.3119757 C63.5247691,36.3119757 63.5878193,36.3140857 63.6353959,36.3209183 C63.6846806,36.3277508 63.7210036,36.3388537 63.748183,36.3546791 C63.7748098,36.3705044 63.7930467,36.3885906 63.8041495,36.4110977 C63.8157046,36.4337054 63.8202261,36.4560619 63.8202261,36.4831408 L63.8202261,37.3284665 C64.1648674,36.945141 64.500566,36.667971 64.8317934,36.4966552 C65.1610615,36.3253393 65.4901788,36.2397819 65.8145736,36.2397819 C66.2066407,36.2397819 66.5358585,36.3051432 66.8062964,36.4381265 C67.0746243,36.568849 67.291055,36.7468969 67.4554378,36.9721697 C67.6197704,37.1953324 67.7392393,37.4590885 67.8115838,37.7565551 C67.8857872,38.0563327 67.9218087,38.4169501 67.9218087,38.8406177 L67.9218087,42.4578437 Z" id="Fill-13" fill="#1A1919"></path>
            <path d="M75.5964571,42.1017981 C75.5964571,42.1942383 75.587615,42.2685422 75.5716892,42.3271212 C75.5581246,42.3833389 75.5333566,42.4286547 75.4995959,42.4622647 C75.4658853,42.496126 75.4184595,42.5254657 75.355359,42.5546547 C75.289847,42.5839944 75.2179044,42.6065016 75.1346077,42.6268485 C75.0487488,42.6472457 74.9608804,42.6629203 74.8685909,42.6741739 C74.7760502,42.685528 74.6860214,42.6900997 74.5980023,42.6900997 C74.3030979,42.6900997 74.0528562,42.6493557 73.8455188,42.5704801 C73.6381814,42.4916045 73.4691263,42.3720853 73.3382531,42.2121738 C73.2053702,42.0499512 73.1105185,41.8470349 73.0500305,41.6012142 C72.991351,41.3534342 72.9620113,41.0628002 72.9620113,40.7292618 L72.9620113,37.010653 L72.0693603,37.010653 C72.0087215,37.010653 71.9589847,36.9834233 71.9252741,36.9294663 C71.8892024,36.8730476 71.8710157,36.7920117 71.8710157,36.6816361 C71.8710157,36.6251169 71.8755373,36.575581 71.8846808,36.5328274 C71.8936234,36.4899734 71.9070373,36.4560619 71.9252741,36.4268729 C71.9430588,36.3974327 71.9634057,36.377337 71.9884751,36.3636719 C72.0108316,36.350258 72.0380613,36.3457365 72.0693603,36.3457365 L72.9620113,36.3457365 L72.9620113,34.8785996 C72.9620113,34.8514202 72.9665831,34.8290637 72.977686,34.8064058 C72.9889395,34.7840494 73.0091357,34.7656618 73.0407362,34.7501379 C73.0700759,34.7343628 73.1129803,34.7231092 73.1623654,34.7163771 C73.2121023,34.7095446 73.2750018,34.7071331 73.3516167,34.7071331 C73.4305426,34.7071331 73.4936431,34.7095446 73.5457412,34.7163771 C73.5953273,34.7231092 73.6358704,34.7343628 73.6651096,34.7501379 C73.6921383,34.7656618 73.7147962,34.7840494 73.7283106,34.8064058 C73.7392628,34.8290637 73.7460953,34.8514202 73.7460953,34.8785996 L73.7460953,36.3457365 L75.3983638,36.3457365 C75.4275528,36.3457365 75.4567418,36.350258 75.4790982,36.3636719 C75.5040169,36.377337 75.524414,36.3974327 75.5425002,36.4268729 C75.5605863,36.4560619 75.5739499,36.4899734 75.5829428,36.5328274 C75.5920361,36.575581 75.5964571,36.6251169 75.5964571,36.6816361 C75.5964571,36.7920117 75.5761102,36.8730476 75.5400384,36.9294663 C75.5020576,36.9834233 75.4543303,37.010653 75.3983638,37.010653 L73.7460953,37.010653 L73.7460953,40.6231565 C73.7460953,41.0763145 73.8116073,41.4210563 73.94238,41.6598937 C74.0706911,41.8965708 74.3075189,42.01609 74.6521099,42.01609 C74.7582152,42.01609 74.8527655,42.0048364 74.9382225,41.9823292 C75.0239809,41.961932 75.1005957,41.9371641 75.1661077,41.9102359 C75.2313183,41.8854679 75.2878374,41.8607 75.3351125,41.8380421 C75.3801269,41.8155349 75.4205695,41.8041808 75.4567418,41.8041808 C75.4790982,41.8041808 75.4995959,41.8087023 75.5152705,41.8176952 C75.5333566,41.826688 75.549182,41.8424631 75.5581246,41.8673818 C75.5692777,41.8921497 75.578371,41.9238005 75.5853543,41.9596713 C75.5920361,41.9981043 75.5964571,42.0454297 75.5964571,42.1017981" id="Fill-14" fill="#1A1919"></path>
            <path d="M84.6504744,39.1629024 C84.6504744,39.3229647 84.6100318,39.4310293 84.5264337,39.4919695 C84.443137,39.550649 84.359991,39.579838 84.280814,39.579838 L80.2087218,39.579838 C80.2087218,39.9495486 80.2447433,40.2851971 80.3166357,40.5828646 C80.3888295,40.8826422 80.5083486,41.1392643 80.677253,41.3534342 C80.8441478,41.5654941 81.0627388,41.7298267 81.3309159,41.8448746 C81.5988921,41.9596713 81.9280094,42.01609 82.3203779,42.01609 C82.5974976,42.01609 82.8475886,41.9912718 83.0661796,41.9439966 C83.2873328,41.89431 83.476584,41.8403531 83.6386559,41.7818243 C83.7985674,41.7232956 83.9317517,41.6691377 84.0331345,41.6196018 C84.1366776,41.5720252 84.2112828,41.5472573 84.2559958,41.5472573 C84.280814,41.5472573 84.3057326,41.5540898 84.328491,41.5676042 C84.3506968,41.5811688 84.3668236,41.6012142 84.3800365,41.6307047 C84.3937016,41.6577836 84.4048044,41.6960659 84.4092255,41.7388195 C84.4162087,41.7839344 84.4209312,41.8380421 84.4209312,41.9034033 C84.4209312,41.9349033 84.4185198,41.9643938 84.4137973,41.9935828 C84.4092255,42.0229225 84.4048044,42.0476904 84.3981226,42.0723077 C84.3914408,42.0971259 84.3800365,42.1197335 84.3668236,42.1422407 C84.3552685,42.1648986 84.3374838,42.1852455 84.3146752,42.207602 C84.292168,42.2301092 84.2246967,42.2685422 84.1094479,42.3227001 C83.9949526,42.3789178 83.846144,42.4330255 83.661163,42.4894442 C83.476584,42.5435518 83.2624141,42.593138 83.0167442,42.6380016 C82.7732345,42.6810064 82.5094785,42.7033629 82.2279377,42.7033629 C81.7659878,42.7033629 81.3556838,42.6335806 80.9996383,42.496126 C80.6434922,42.3565614 80.3437146,42.1512335 80.1026165,41.8809464 C79.8591068,41.6105085 79.6765374,41.2746591 79.5503364,40.8734987 C79.4262957,40.474599 79.3631952,40.0080774 79.3631952,39.4807159 C79.3631952,38.975912 79.4262957,38.5205936 79.5573196,38.121694 C79.6878914,37.7203828 79.8727719,37.3801626 80.1162815,37.1006315 C80.3573797,36.8212007 80.6479133,36.6071815 80.990545,36.4607844 C81.3309159,36.3119757 81.7118299,36.2397819 82.128665,36.2397819 C82.577,36.2397819 82.9605265,36.3140857 83.277938,36.4628944 C83.5959525,36.6138634 83.8548354,36.8145189 84.0602134,37.0668707 C84.2653905,37.3216339 84.4137973,37.6147297 84.508649,37.9482681 C84.6035007,38.2840672 84.6504744,38.635541 84.6504744,39.005101 L84.6504744,39.1629024 Z M83.8393114,38.9330076 C83.8528258,38.2997419 83.7061774,37.8038302 83.4042395,37.4478349 C83.0999404,37.0916386 82.6582871,36.9115309 82.0769688,36.9115309 C81.7770907,36.9115309 81.513636,36.9677486 81.2879111,37.080385 C81.0606287,37.1932224 80.868765,37.3417296 80.7131238,37.5267105 C80.5553223,37.711591 80.4361548,37.9254595 80.3528079,38.1711294 C80.2695113,38.414639 80.221784,38.6693018 80.2087218,38.9330076 L83.8393114,38.9330076 Z" id="Fill-15" fill="#1A1919"></path>
            <path d="M92.525929,36.7873395 C92.525929,36.8530022 92.5235176,36.9090692 92.5189458,36.9566458 C92.5145247,37.0015094 92.5078429,37.0399424 92.49674,37.0668707 C92.4853357,37.0962104 92.4719721,37.1188683 92.4558453,37.1343922 C92.4402209,37.1480573 92.4199745,37.1571506 92.3928955,37.1571506 C92.3546132,37.1571506 92.3074888,37.145897 92.2556419,37.1278109 C92.2012328,37.107464 92.1404433,37.0872678 92.0707614,37.0647606 C92.0007279,37.0421027 91.9219528,37.0218563 91.8385054,37.0015094 C91.7552087,36.9814137 91.6627685,36.9721697 91.5610842,36.9721697 C91.4419167,36.9721697 91.3268186,36.9969376 91.2120722,37.0487845 C91.0971248,37.0984712 90.9776558,37.1795071 90.8514548,37.2921937 C90.7275648,37.4049808 90.5942801,37.5536388 90.4571269,37.7386197 C90.3172609,37.9233494 90.1639307,38.1487729 89.9974378,38.4169501 L89.9974378,42.4578437 C89.9974378,42.4850231 89.9906053,42.5096906 89.9769402,42.5322983 C89.9635263,42.5525447 89.9430287,42.5704801 89.9138397,42.5839944 C89.8866603,42.5976595 89.8461674,42.6087624 89.7964808,42.6177552 C89.7449353,42.6268485 89.6794233,42.6312696 89.6006984,42.6312696 C89.5260429,42.6312696 89.4629424,42.6268485 89.4135572,42.6177552 C89.3615596,42.6087624 89.3212677,42.5976595 89.289818,42.5839944 C89.2604782,42.5704801 89.2378203,42.5525447 89.2288275,42.5322983 C89.2173227,42.5096906 89.2107414,42.4850231 89.2107414,42.4578437 L89.2107414,36.4831408 C89.2107414,36.4560619 89.2173227,36.4337054 89.2288275,36.4110977 C89.2378203,36.3885906 89.2604782,36.3705044 89.289818,36.3546791 C89.3212677,36.3388537 89.3594496,36.3277508 89.4069759,36.3209183 C89.4518395,36.3140857 89.5126793,36.3119757 89.5869831,36.3119757 C89.6616386,36.3119757 89.7245884,36.3140857 89.7721148,36.3209183 C89.8212487,36.3277508 89.8573205,36.3388537 89.8845,36.3546791 C89.9114282,36.3705044 89.929665,36.3885906 89.9409186,36.4110977 C89.952122,36.4337054 89.9566938,36.4560619 89.9566938,36.4831408 L89.9566938,37.427488 C90.1278589,37.177397 90.2878207,36.9745812 90.4320576,36.8190907 C90.5787562,36.6657103 90.7160098,36.5462413 90.8491941,36.4607844 C90.9797659,36.375026 91.1103879,36.3164972 91.2344286,36.2848967 C91.3605794,36.2532963 91.4891919,36.2397819 91.6220244,36.2397819 C91.6784431,36.2397819 91.7436537,36.2420427 91.8181585,36.2488752 C91.894924,36.255557 91.9737997,36.2668106 92.0594074,36.2848967 C92.1471251,36.3029829 92.2240414,36.32338 92.2915127,36.348148 C92.3590342,36.3726145 92.4066108,36.3930116 92.4336395,36.4133585 C92.4604171,36.4337054 92.4762424,36.4515403 92.4853357,36.4674662 C92.4943285,36.4831408 92.5035726,36.5010762 92.5100032,36.5259949 C92.5168357,36.5507629 92.521508,36.5824136 92.5235176,36.6251169 C92.5235176,36.667971 92.525929,36.7221289 92.525929,36.7873395" id="Fill-16" fill="#1A1919"></path>
            <path d="M97.4919567,42.4578437 C97.4919567,42.4850231 97.484659,42.5096906 97.4697344,42.5322983 C97.4549743,42.5525447 97.4328617,42.5704801 97.4008176,42.5839944 C97.3712976,42.5976595 97.326798,42.6087624 97.2726413,42.6177552 C97.2163446,42.6268485 97.1449587,42.6312696 97.0586482,42.6312696 C96.9774406,42.6312696 96.9086884,42.6268485 96.8545866,42.6177552 C96.7976315,42.6087624 96.7536258,42.5976595 96.7192771,42.5839944 C96.6870684,42.5704801 96.6621574,42.5525447 96.6527198,42.5322983 C96.6404289,42.5096906 96.6329666,42.4850231 96.6329666,42.4578437 L96.6329666,36.4831408 C96.6329666,36.4560619 96.6404289,36.4337054 96.6527198,36.4110977 C96.6621574,36.3885906 96.6870684,36.3705044 96.7192771,36.3546791 C96.7536258,36.3388537 96.7976315,36.3277508 96.8545866,36.3209183 C96.9086884,36.3140857 96.9774406,36.3119757 97.0586482,36.3119757 C97.1449587,36.3119757 97.2163446,36.3140857 97.2726413,36.3209183 C97.326798,36.3277508 97.3712976,36.3388537 97.4008176,36.3546791 C97.4328617,36.3705044 97.4549743,36.3885906 97.4697344,36.4110977 C97.484659,36.4337054 97.4919567,36.4560619 97.4919567,36.4831408 L97.4919567,42.4578437 Z M97.6224925,34.4682957 C97.6224925,34.6803556 97.5806267,34.8246427 97.4991447,34.8988461 C97.4181017,34.9731499 97.267703,35.0114825 97.0515151,35.0114825 C96.8398266,35.0114825 96.6943661,34.9754609 96.6158471,34.9011068 C96.5371087,34.8290637 96.4974925,34.6871881 96.4974925,34.4751282 C96.4974925,34.2655301 96.5371087,34.1212429 96.6181517,34.0470898 C96.7018285,33.972585 96.8494288,33.9342525 97.0661105,33.9342525 C97.2779637,33.9342525 97.4230949,33.9701735 97.5017785,34.0446281 C97.5830958,34.1168721 97.6224925,34.2588482 97.6224925,34.4682957 L97.6224925,34.4682957 Z" id="Fill-17" fill="#1A1919"></path>
            <path d="M107.645381,39.4086729 C107.645381,39.8841874 107.584391,40.3213693 107.460652,40.7224293 C107.336611,41.1237404 107.154041,41.4706424 106.908371,41.765999 C106.665012,42.0612048 106.360814,42.2910494 105.995675,42.4555327 C105.628426,42.620016 105.204457,42.7033629 104.71995,42.7033629 C104.253729,42.7033629 103.845686,42.6291595 103.496222,42.4826116 C103.144748,42.333803 102.851703,42.1220445 102.617286,41.8470349 C102.38071,41.5720252 102.204872,41.2384868 102.089925,40.8487307 C101.972717,40.4565129 101.914188,40.0126491 101.914188,39.5211585 C101.914188,39.0455436 101.974726,38.606352 102.096356,38.2073017 C102.215975,37.8061412 102.398545,37.4590885 102.644315,37.1659927 C102.887423,36.8730476 103.192023,36.6454638 103.557062,36.4831408 C103.92416,36.3209183 104.350289,36.2397819 104.839318,36.2397819 C105.305689,36.2397819 105.713833,36.3119757 106.063046,36.4560619 C106.414771,36.6027605 106.705304,36.8122582 106.93756,37.0872678 C107.172127,37.3620765 107.347714,37.6956149 107.467082,38.0878327 C107.586852,38.4800003 107.645381,38.9194933 107.645381,39.4086729 Z M106.81367,39.4807159 C106.81367,39.142656 106.779809,38.8181105 106.714699,38.5094908 C106.649187,38.2028806 106.538711,37.930182 106.383321,37.6956149 C106.230091,37.4590885 106.022754,37.2719473 105.763268,37.1343922 C105.504385,36.9948276 105.179689,36.9248946 104.792194,36.9248946 C104.435997,36.9248946 104.127277,36.9902558 103.868093,37.1164568 C103.609009,37.2449186 103.3971,37.423067 103.230205,37.6484905 C103.065571,37.8761748 102.943942,38.1419404 102.865066,38.4508113 C102.786341,38.759431 102.745748,39.0906584 102.745748,39.4470054 C102.745748,39.7917471 102.779459,40.118453 102.844971,40.4294842 C102.910382,40.7382044 103.020708,41.011104 103.176248,41.2429079 C103.329629,41.477475 103.536665,41.6623052 103.795849,41.7973483 C104.055033,41.9349033 104.379629,42.0026761 104.767376,42.0026761 C105.12312,42.0026761 105.432292,41.9395756 105.691326,41.8110133 C105.950409,41.6848123 106.162319,41.5090754 106.327053,41.2836519 C106.493546,41.0583791 106.615326,40.7922116 106.694352,40.4835919 C106.772977,40.1769817 106.81367,39.8413333 106.81367,39.4807159 L106.81367,39.4807159 Z" id="Fill-18" fill="#1A1919"></path>
            <path d="M115.47336,36.7873395 C115.47336,36.8530022 115.471099,36.9090692 115.466527,36.9566458 C115.462006,37.0015094 115.455274,37.0399424 115.44407,37.0668707 C115.432817,37.0962104 115.419101,37.1188683 115.403577,37.1343922 C115.387501,37.1480573 115.367556,37.1571506 115.340377,37.1571506 C115.301943,37.1571506 115.254769,37.145897 115.202821,37.1278109 C115.148664,37.107464 115.087723,37.0872678 115.018092,37.0647606 C114.948309,37.0421027 114.869283,37.0218563 114.785836,37.0015094 C114.702639,36.9814137 114.610249,36.9721697 114.508565,36.9721697 C114.389197,36.9721697 114.27445,36.9969376 114.159352,37.0487845 C114.044455,37.0984712 113.924835,37.1795071 113.798785,37.2921937 C113.674895,37.4049808 113.542012,37.5536388 113.404307,37.7386197 C113.264893,37.9233494 113.111512,38.1487729 112.944718,38.4169501 L112.944718,42.4578437 C112.944718,42.4850231 112.938036,42.5096906 112.924522,42.5322983 C112.910857,42.5525447 112.890459,42.5704801 112.86117,42.5839944 C112.834392,42.5976595 112.793498,42.6087624 112.743811,42.6177552 C112.692266,42.6268485 112.626904,42.6312696 112.547828,42.6312696 C112.473624,42.6312696 112.410574,42.6268485 112.360988,42.6177552 C112.309041,42.6087624 112.268598,42.5976595 112.236947,42.5839944 C112.207758,42.5704801 112.185,42.5525447 112.176158,42.5322983 C112.164904,42.5096906 112.158072,42.4850231 112.158072,42.4578437 L112.158072,36.4831408 C112.158072,36.4560619 112.164904,36.4337054 112.176158,36.4110977 C112.185,36.3885906 112.207758,36.3705044 112.236947,36.3546791 C112.268598,36.3388537 112.306579,36.3277508 112.354306,36.3209183 C112.39917,36.3140857 112.459959,36.3119757 112.534615,36.3119757 C112.608818,36.3119757 112.671718,36.3140857 112.719445,36.3209183 C112.76873,36.3277508 112.805053,36.3388537 112.832081,36.3546791 C112.85901,36.3705044 112.877096,36.3885906 112.888199,36.4110977 C112.899754,36.4337054 112.904175,36.4560619 112.904175,36.4831408 L112.904175,37.427488 C113.07534,37.177397 113.235402,36.9745812 113.379539,36.8190907 C113.525936,36.6657103 113.663642,36.5462413 113.796625,36.4607844 C113.927247,36.375026 114.05812,36.3164972 114.18201,36.2848967 C114.308312,36.2532963 114.436773,36.2397819 114.569505,36.2397819 C114.625773,36.2397819 114.691285,36.2420427 114.76574,36.2488752 C114.842204,36.255557 114.921281,36.2668106 115.006838,36.2848967 C115.094556,36.3029829 115.171321,36.32338 115.238994,36.348148 C115.306314,36.3726145 115.353891,36.3930116 115.381121,36.4133585 C115.407999,36.4337054 115.423522,36.4515403 115.432817,36.4674662 C115.441759,36.4831408 115.450752,36.5010762 115.457434,36.5259949 C115.464417,36.5507629 115.468989,36.5824136 115.471099,36.6251169 C115.471099,36.667971 115.47336,36.7221289 115.47336,36.7873395" id="Fill-19" fill="#1A1919"></path>
            <path d="M130.196223,42.4578437 C130.196223,42.4894442 130.189491,42.5163724 130.180549,42.5391308 C130.168994,42.5592265 130.148797,42.5773126 130.119608,42.590827 C130.09268,42.6043916 130.054348,42.6131834 130.011343,42.620016 C129.966228,42.6268485 129.912221,42.6312696 129.84701,42.6312696 C129.774666,42.6312696 129.718549,42.6268485 129.671123,42.620016 C129.626159,42.6131834 129.587424,42.6043916 129.558185,42.590827 C129.531307,42.5773126 129.509051,42.5592265 129.492974,42.5391308 C129.4773,42.5163724 129.470316,42.4894442 129.470316,42.4578437 L129.470316,41.6012142 C129.152754,41.9439966 128.825646,42.2144345 128.485426,42.4082575 C128.147467,42.6043916 127.777957,42.7033629 127.376897,42.7033629 C126.946548,42.7033629 126.576686,42.620016 126.274949,42.4510111 C125.9706,42.2842168 125.722669,42.0587933 125.530956,41.7725301 C125.339294,41.4864678 125.199578,41.1507691 125.11186,40.7654341 C125.023841,40.379898 124.978576,39.9719051 124.978576,39.5392447 C124.978576,39.0344407 125.035095,38.5768616 125.145621,38.1711294 C125.255997,37.7632872 125.418471,37.4162344 125.634801,37.1299712 C125.84882,36.8438586 126.114736,36.6251169 126.432449,36.4697772 C126.750313,36.3164972 127.117411,36.2397819 127.534548,36.2397819 C127.895266,36.2397819 128.226393,36.3185068 128.526019,36.4808801 C128.825646,36.6409423 129.118993,36.8777701 129.409678,37.1909114 L129.409678,33.5915203 C129.409678,33.5647428 129.41651,33.5398241 129.427764,33.5195777 C129.438867,33.4970705 129.459214,33.4789844 129.488553,33.46547 C129.520204,33.4519556 129.560647,33.4407021 129.612443,33.43397 C129.662029,33.4248767 129.72513,33.4203049 129.799434,33.4203049 C129.87851,33.4203049 129.943872,33.4248767 129.995568,33.43397 C130.044953,33.4407021 130.085848,33.4519556 130.112776,33.46547 C130.141965,33.4789844 130.162312,33.4970705 130.175977,33.5195777 C130.189491,33.5398241 130.196223,33.5647428 130.196223,33.5915203 L130.196223,42.4578437 Z M129.409678,38.1463615 C129.080711,37.7476125 128.762697,37.4410024 128.456237,37.2292439 C128.149778,37.0173348 127.829754,36.9115309 127.496266,36.9115309 C127.192067,36.9115309 126.932883,36.9858348 126.716402,37.1299712 C126.500071,37.2766698 126.324335,37.4681818 126.189191,37.7047584 C126.051485,37.9414355 125.952363,38.2117227 125.891574,38.5094908 C125.828473,38.8091176 125.798983,39.1133163 125.798983,39.4221872 C125.798983,39.7511538 125.824052,40.0734386 125.878059,40.3843191 C125.930007,40.6976111 126.020287,40.9770418 126.148598,41.2205514 C126.276909,41.4638099 126.445964,41.6598937 126.657873,41.8087023 C126.867371,41.9550995 127.133538,42.0296043 127.44884,42.0296043 C127.608751,42.0296043 127.761981,42.0070971 127.91094,41.9643938 C128.061759,41.9192287 128.215139,41.8470349 128.373041,41.7456521 C128.533003,41.6443697 128.695075,41.5134965 128.866541,41.3534342 C129.035395,41.1912117 129.215553,40.9928671 129.409678,40.75619 L129.409678,38.1463615 Z" id="Fill-20" fill="#1A1919"></path>
            <path d="M140.023121,39.1629024 C140.023121,39.3229647 139.982528,39.4310293 139.899081,39.4919695 C139.815884,39.550649 139.732437,39.579838 139.653411,39.579838 L135.581017,39.579838 C135.581017,39.9495486 135.617038,40.2851971 135.689283,40.5828646 C135.761326,40.8826422 135.880945,41.1392643 136.04985,41.3534342 C136.216895,41.5654941 136.435335,41.7298267 136.703663,41.8448746 C136.97179,41.9596713 137.300506,42.01609 137.692673,42.01609 C137.969944,42.01609 138.220035,41.9912718 138.439078,41.9439966 C138.659779,41.89431 138.848929,41.8403531 139.011152,41.7818243 C139.171214,41.7232956 139.304198,41.6691377 139.405731,41.6196018 C139.509576,41.5720252 139.583628,41.5472573 139.628643,41.5472573 C139.653411,41.5472573 139.678329,41.5540898 139.700987,41.5676042 C139.723444,41.5811688 139.739119,41.6012142 139.752784,41.6307047 C139.766198,41.6577836 139.777301,41.6960659 139.782124,41.7388195 C139.788956,41.7839344 139.793377,41.8380421 139.793377,41.9034033 C139.793377,41.9349033 139.790966,41.9643938 139.786545,41.9935828 C139.782124,42.0229225 139.777301,42.0476904 139.770468,42.0723077 C139.764037,42.0971259 139.752784,42.1197335 139.739119,42.1422407 C139.728016,42.1648986 139.70993,42.1852455 139.687171,42.207602 C139.664915,42.2301092 139.597293,42.2685422 139.482346,42.3227001 C139.367298,42.3789178 139.218489,42.4330255 139.033508,42.4894442 C138.848929,42.5435518 138.63486,42.593138 138.38924,42.6380016 C138.145982,42.6810064 137.882075,42.7033629 137.600283,42.7033629 C137.138283,42.7033629 136.728431,42.6335806 136.372285,42.496126 C136.015938,42.3565614 135.716462,42.1512335 135.475213,41.8809464 C135.231703,41.6105085 135.049134,41.2746591 134.923084,40.8734987 C134.798892,40.474599 134.735842,40.0080774 134.735842,39.4807159 C134.735842,38.975912 134.798892,38.5205936 134.929916,38.121694 C135.060388,37.7203828 135.245067,37.3801626 135.488627,37.1006315 C135.729976,36.8212007 136.020811,36.6071815 136.363292,36.4607844 C136.703663,36.3119757 137.084175,36.2397819 137.501312,36.2397819 C137.949898,36.2397819 138.332822,36.3140857 138.650384,36.4628944 C138.9687,36.6138634 139.227583,36.8145189 139.432509,37.0668707 C139.638037,37.3216339 139.786545,37.6147297 139.881396,37.9482681 C139.975947,38.2840672 140.023121,38.635541 140.023121,39.005101 L140.023121,39.1629024 Z M139.211808,38.9330076 C139.225171,38.2997419 139.078925,37.8038302 138.776987,37.4478349 C138.472838,37.0916386 138.030783,36.9115309 137.449314,36.9115309 C137.149537,36.9115309 136.886233,36.9677486 136.660357,37.080385 C136.433075,37.1932224 136.241663,37.3417296 136.086022,37.5267105 C135.92807,37.711591 135.808902,37.9254595 135.725455,38.1711294 C135.641957,38.414639 135.594431,38.6693018 135.581017,38.9330076 L139.211808,38.9330076 Z" id="Fill-21" fill="#1A1919"></path>
            <path d="M148.09677,40.8666661 C148.09677,41.1529294 148.042963,41.4098529 147.938968,41.6375372 C147.833164,41.8628602 147.682195,42.0567838 147.485961,42.2144345 C147.289877,42.3720853 147.055612,42.4940159 146.782913,42.5773126 C146.510465,42.66076 146.208276,42.7033629 145.876999,42.7033629 C145.671671,42.7033629 145.475838,42.685528 145.291159,42.6539275 C145.106027,42.620016 144.937123,42.5794227 144.788314,42.527626 C144.639455,42.4781906 144.513304,42.4239322 144.409912,42.3654035 C144.305816,42.309035 144.229453,42.2592982 144.181926,42.2144345 C144.132491,42.1693197 144.09662,42.1153125 144.076223,42.0499512 C144.053465,41.9823292 144.042512,41.89431 144.042512,41.7862454 C144.042512,41.7276664 144.046883,41.6781305 144.055876,41.6329654 C144.064718,41.5901114 144.076223,41.551829 144.089637,41.520329 C144.101041,41.4909893 144.118826,41.4662214 144.141584,41.452707 C144.164091,41.4370324 144.186448,41.4279391 144.213678,41.4279391 C144.263364,41.4279391 144.332996,41.4593888 144.425436,41.520329 C144.517876,41.5834295 144.632773,41.6509511 144.772639,41.7232956 C144.909893,41.7953387 145.076838,41.8628602 145.26624,41.9238005 C145.457601,41.9845899 145.680764,42.01609 145.930704,42.01609 C146.133621,42.01609 146.318652,41.9935828 146.485547,41.9507287 C146.65214,41.9055636 146.798688,41.8403531 146.920468,41.7524846 C147.044358,41.6646162 147.141219,41.551829 147.20869,41.4121137 C147.276614,41.2746591 147.310375,41.1123361 147.310375,40.9275059 C147.310375,40.7427762 147.267219,40.584824 147.179351,40.4588239 C147.091482,40.3302114 146.974425,40.2199865 146.832298,40.1252855 C146.688061,40.0305845 146.525989,39.9471371 146.34342,39.8726323 C146.16085,39.8005893 145.974011,39.7263859 145.782298,39.649771 C145.590786,39.5730054 145.403494,39.4875987 145.220924,39.3950078 C145.038355,39.3025676 144.876183,39.1899312 144.731745,39.0592086 C144.59007,38.9263258 144.472862,38.7685243 144.384993,38.5836941 C144.296974,38.3988639 144.254422,38.1758519 144.254422,37.9165169 C144.254422,37.7091293 144.292704,37.5063636 144.37374,37.3058588 C144.452364,37.1052032 144.574245,36.9248946 144.738879,36.7672438 C144.903513,36.6094423 145.11512,36.4808801 145.371893,36.3840188 C145.631228,36.2872077 145.935678,36.2397819 146.287001,36.2397819 C146.43797,36.2397819 146.584518,36.2510355 146.733327,36.2758034 C146.879875,36.2985618 147.014867,36.3321719 147.136949,36.3705044 C147.256267,36.4110977 147.36192,36.4539518 147.449789,36.4990667 C147.537657,36.5462413 147.605581,36.5868346 147.650595,36.6231074 C147.697719,36.6568682 147.727059,36.6860572 147.743186,36.7108753 C147.758559,36.7356433 147.770064,36.760562 147.776896,36.7873395 C147.783327,36.8145189 147.787899,36.8461194 147.792722,36.8821912 C147.797143,36.9204735 147.799404,36.9654879 147.799404,37.0173348 C147.799404,37.0714424 147.797143,37.1188683 147.79016,37.1591602 C147.783327,37.202165 147.772375,37.2380358 147.758559,37.2698372 C147.747456,37.2990263 147.72937,37.3237942 147.709425,37.3373086 C147.690887,37.3531339 147.666119,37.3620765 147.641351,37.3620765 C147.605581,37.3620765 147.553784,37.3373086 147.48154,37.2877727 C147.411657,37.2404975 147.319518,37.1884999 147.204169,37.1299712 C147.091482,37.0737032 146.954379,37.0195955 146.796578,36.9721697 C146.636516,36.9227845 146.453946,36.9001266 146.24902,36.9001266 C146.041231,36.9001266 145.858661,36.9227845 145.703271,36.9721697 C145.547932,37.0195955 145.417159,37.0895286 145.315776,37.177397 C145.216503,37.2652655 145.140039,37.368909 145.088192,37.4861172 C145.038355,37.6056364 145.013738,37.7363589 145.013738,37.8761748 C145.013738,38.0698973 145.056441,38.2320696 145.144611,38.3651031 C145.23263,38.497986 145.349688,38.6107731 145.495934,38.7075841 C145.640171,38.8045961 145.804654,38.8901536 145.989685,38.9667684 C146.174516,39.0411225 146.363767,39.1155771 146.555329,39.1899312 C146.74659,39.264436 146.933832,39.3477326 147.118561,39.4378619 C147.303391,39.5278906 147.470286,39.6361059 147.614573,39.7645677 C147.758559,39.8930295 147.875918,40.0464099 147.963887,40.2245583 C148.051755,40.4022545 148.09677,40.6164747 148.09677,40.8666661" id="Fill-22" fill="#1A1919"></path>
            <path d="M153.43265,42.4578437 C153.43265,42.4850231 153.425352,42.5096906 153.410427,42.5322983 C153.395941,42.5525447 153.373719,42.5704801 153.341675,42.5839944 C153.311935,42.5976595 153.267765,42.6087624 153.213499,42.6177552 C153.157202,42.6268485 153.085652,42.6312696 152.999341,42.6312696 C152.918463,42.6312696 152.849381,42.6268485 152.795279,42.6177552 C152.738489,42.6087624 152.694319,42.5976595 152.66008,42.5839944 C152.627761,42.5704801 152.603179,42.5525447 152.593358,42.5322983 C152.580902,42.5096906 152.573605,42.4850231 152.573605,42.4578437 L152.573605,36.4831408 C152.573605,36.4560619 152.580902,36.4337054 152.593358,36.4110977 C152.603179,36.3885906 152.627761,36.3705044 152.66008,36.3546791 C152.694319,36.3388537 152.738489,36.3277508 152.795279,36.3209183 C152.849381,36.3140857 152.918463,36.3119757 152.999341,36.3119757 C153.085652,36.3119757 153.157202,36.3140857 153.213499,36.3209183 C153.267765,36.3277508 153.311935,36.3388537 153.341675,36.3546791 C153.373719,36.3705044 153.395941,36.3885906 153.410427,36.4110977 C153.425352,36.4337054 153.43265,36.4560619 153.43265,36.4831408 L153.43265,42.4578437 Z M153.563295,34.4682957 C153.563295,34.6803556 153.521484,34.8246427 153.439947,34.8988461 C153.358904,34.9731499 153.20867,35.0114825 152.992318,35.0114825 C152.7803,35.0114825 152.635059,34.9754609 152.556485,34.9011068 C152.477966,34.8290637 152.438295,34.6871881 152.438295,34.4751282 C152.438295,34.2655301 152.477966,34.1212429 152.559009,34.0470898 C152.642521,33.972585 152.790451,33.9342525 153.006803,33.9342525 C153.218931,33.9342525 153.363897,33.9701735 153.442581,34.0446281 C153.524118,34.1168721 153.563295,34.2588482 153.563295,34.4682957 L153.563295,34.4682957 Z" id="Fill-23" fill="#1A1919"></path>
            <path d="M163.083641,36.6816361 C163.083641,36.8054256 163.063394,36.8911338 163.02466,36.9384089 C162.984217,36.9879951 162.934932,37.010653 162.873992,37.010653 L161.929695,37.010653 C162.114525,37.1999042 162.242836,37.4073923 162.31488,37.6281436 C162.387224,37.8512561 162.423396,38.0855217 162.423396,38.3313424 C162.423396,38.6717133 162.368987,38.9734502 162.263183,39.2372063 C162.155119,39.5009624 162.001738,39.7239744 161.803343,39.9065438 C161.604999,40.0891133 161.370583,40.2289793 161.095573,40.3257904 C160.823276,40.4226516 160.523499,40.4723383 160.19212,40.4723383 C159.923843,40.4723383 159.66918,40.4339052 159.425821,40.3597019 C159.184723,40.2851971 158.995472,40.1928071 158.857716,40.0822807 C158.769847,40.1704506 158.697955,40.2716827 158.641436,40.3843191 C158.582606,40.4994172 158.555677,40.6324005 158.555677,40.780958 C158.555677,40.9478528 158.634704,41.0896782 158.794515,41.2047763 C158.956838,41.3198242 159.164225,41.3805132 159.418838,41.3894558 L161.037044,41.4549678 C161.309642,41.4638099 161.566817,41.5023936 161.805755,41.5676042 C162.046602,41.6329654 162.256351,41.7320875 162.436509,41.8607 C162.616817,41.9912718 162.761356,42.1512335 162.86716,42.3406355 C162.970954,42.5298868 163.02466,42.7507888 163.02466,43.007662 C163.02466,43.2712674 162.970954,43.5239206 162.862437,43.7650187 C162.754523,44.008227 162.587478,44.2201361 162.360195,44.4027056 C162.134722,44.585275 161.844088,44.7316722 161.492212,44.8399377 C161.140838,44.946043 160.719331,45 160.232412,45 C159.766192,45 159.367292,44.9595574 159.040185,44.8782201 C158.711218,44.7971841 158.443342,44.6845477 158.233694,44.5424209 C158.026357,44.3983347 157.872976,44.2313897 157.778426,44.0377174 C157.683574,43.8438944 157.636148,43.6344469 157.636148,43.4089732 C157.636148,43.2557435 157.654385,43.1091956 157.690407,42.9739013 C157.724017,42.8364969 157.778426,42.7080352 157.852479,42.5839944 C157.924823,42.4602552 158.014952,42.3428963 158.123017,42.2279991 C158.22872,42.112901 158.355323,41.9958435 158.494888,41.8786354 C158.271725,41.7637382 158.105232,41.6240228 157.999026,41.4618003 C157.895483,41.2994773 157.841376,41.1258504 157.841376,40.941171 C157.841376,40.6661613 157.895483,40.4270727 157.999026,40.2177257 C158.105232,40.0080774 158.233694,39.8186754 158.382251,39.6519313 C158.2559,39.485137 158.156778,39.3025676 158.086995,39.1043235 C158.014952,38.9059789 157.981041,38.6693018 157.981041,38.3920314 C157.981041,38.0563327 158.035048,37.7565551 158.145524,37.490689 C158.2559,37.2246722 158.409431,36.9993994 158.603103,36.8145189 C158.799087,36.6275284 159.033754,36.4855523 159.308613,36.3885906 C159.581161,36.2893178 159.878979,36.2397819 160.205384,36.2397819 C160.37685,36.2397819 160.538872,36.2488752 160.689991,36.2692221 C160.843221,36.2893178 160.983087,36.3140857 161.109238,36.3457365 L162.873992,36.3457365 C162.948196,36.3457365 163.002454,36.3726145 163.034054,36.4314446 C163.067966,36.4877126 163.083641,36.57116 163.083641,36.6816361 Z M161.611831,38.3448567 C161.611831,37.8916987 161.487791,37.5378134 161.237549,37.2832009 C160.98992,37.0262774 160.635884,36.9001266 160.178455,36.9001266 C159.946451,36.9001266 159.741273,36.9384089 159.565386,37.0173348 C159.3898,37.0962104 159.243252,37.2044257 159.128304,37.3417296 C159.015367,37.4771746 158.93006,37.6370862 158.871431,37.8173948 C158.815012,37.997804 158.785673,38.1893662 158.785673,38.3920314 C158.785673,38.8316248 158.909713,39.1785269 159.159804,39.4310293 C159.407735,39.6836825 159.757049,39.8121443 160.205384,39.8121443 C160.442211,39.8121443 160.65181,39.7714002 160.829858,39.6925246 C161.007855,39.6135988 161.154252,39.5055341 161.26915,39.3725006 C161.382087,39.2372063 161.467695,39.0817158 161.526073,38.9036679 C161.582492,38.7256702 161.611831,38.5386798 161.611831,38.3448567 Z M162.238566,43.0528271 C162.238566,42.7620423 162.121207,42.5411404 161.886791,42.3857504 C161.650264,42.2325206 161.33441,42.1490733 160.937771,42.1357096 L159.202357,42.0747694 C159.042596,42.1986594 158.914285,42.3158676 158.812902,42.426193 C158.711218,42.5367193 158.630283,42.6425232 158.571653,42.746217 C158.510663,42.8498606 158.47012,42.9514443 158.450024,43.0504156 C158.427216,43.1496382 158.416113,43.2489109 158.416113,43.3501933 C158.416113,43.6747388 158.580596,43.9226695 158.907453,44.0895643 C159.236268,44.2562079 159.691537,44.339806 160.277728,44.339806 C160.647288,44.339806 160.956008,44.3036337 161.206099,44.2313897 C161.45403,44.1593466 161.654686,44.0623849 161.810176,43.9451767 C161.963406,43.8258082 162.073781,43.6884039 162.139293,43.5351742 C162.206966,43.3817937 162.238566,43.2195712 162.238566,43.0528271 L162.238566,43.0528271 Z" id="Fill-24" fill="#1A1919"></path>
            <path d="M172.23462,42.4578437 C172.23462,42.4850231 172.227636,42.5096906 172.214122,42.5322983 C172.200758,42.5525447 172.180512,42.5704801 172.151172,42.5839944 C172.121682,42.5976595 172.083701,42.6087624 172.031552,42.6177552 C171.981866,42.6268485 171.918765,42.6312696 171.844562,42.6312696 C171.765686,42.6312696 171.700325,42.6268485 171.648327,42.6177552 C171.598892,42.6087624 171.558449,42.5976595 171.53127,42.5839944 C171.502081,42.5704801 171.481583,42.5525447 171.46832,42.5322983 C171.454655,42.5096906 171.447973,42.4850231 171.447973,42.4578437 L171.447973,38.9128115 C171.447973,38.5431008 171.418634,38.2433232 171.362215,38.0112179 C171.305847,37.7813733 171.217978,37.5831292 171.105442,37.4186459 C170.990394,37.2517511 170.843846,37.1255501 170.665698,37.0355716 C170.487952,36.945141 170.278203,36.9001266 170.041676,36.9001266 C169.737327,36.9001266 169.432977,37.0062319 169.13109,37.2225119 C168.826891,37.4389928 168.506917,37.7542943 168.173379,38.1735409 L168.173379,42.4578437 C168.173379,42.4850231 168.166546,42.5096906 168.152881,42.5322983 C168.139618,42.5525447 168.119271,42.5704801 168.089932,42.5839944 C168.062702,42.5976595 168.022259,42.6087624 167.972573,42.6177552 C167.921027,42.6268485 167.855365,42.6312696 167.77664,42.6312696 C167.701984,42.6312696 167.639034,42.6268485 167.589649,42.6177552 C167.537652,42.6087624 167.497209,42.5976595 167.465759,42.5839944 C167.436419,42.5704801 167.413912,42.5525447 167.404769,42.5322983 C167.393415,42.5096906 167.386683,42.4850231 167.386683,42.4578437 L167.386683,36.4831408 C167.386683,36.4560619 167.393415,36.4337054 167.404769,36.4110977 C167.413912,36.3885906 167.436419,36.3705044 167.465759,36.3546791 C167.497209,36.3388537 167.535541,36.3277508 167.582917,36.3209183 C167.627931,36.3140857 167.688872,36.3119757 167.762924,36.3119757 C167.83758,36.3119757 167.90068,36.3140857 167.948106,36.3209183 C167.997491,36.3277508 168.033513,36.3388537 168.060743,36.3546791 C168.087621,36.3705044 168.105707,36.3885906 168.11696,36.4110977 C168.128113,36.4337054 168.132635,36.4560619 168.132635,36.4831408 L168.132635,37.3284665 C168.477728,36.945141 168.813377,36.667971 169.144755,36.4966552 C169.473571,36.3253393 169.802537,36.2397819 170.127384,36.2397819 C170.519602,36.2397819 170.848267,36.3051432 171.118856,36.4381265 C171.387033,36.568849 171.603313,36.7468969 171.767796,36.9721697 C171.932732,37.1953324 172.05205,37.4590885 172.123993,37.7565551 C172.198347,38.0563327 172.23462,38.4169501 172.23462,38.8406177 L172.23462,42.4578437 Z" id="Fill-25" fill="#1A1919"></path>
            <path d="M32.000192,27.0179656 C33.0882235,27.0080182 34.0467884,26.8134918 34.8760374,26.4464941 C35.7270903,26.0629676 36.3962772,25.5043072 36.8774687,24.7700103 C37.351677,24.0357636 37.5983517,23.1324619 37.6048828,22.0669377 L37.6048828,10.058752 L38.8135387,10.058752 L38.8135387,22.1449592 C38.8070076,23.0935767 38.638254,23.9316679 38.2937634,24.6659146 C37.9559547,25.4002115 37.4812943,26.0174006 36.8709376,26.5243649 C36.2601288,27.031078 35.5387936,27.4147049 34.7197934,27.6744921 C33.8946639,27.9409108 32.9979435,28.07093 32.0296825,28.07093 L32.000192,28.0705281 L32.000192,27.0179656 Z" id="Fill-26" fill="#CD305E"></path>
            <path d="M173.49256,25.97736 C173.491103,25.6939603 173.441115,25.4343741 173.342596,25.195386 C173.244177,24.9564482 173.105216,24.7496634 172.927318,24.5719169 C172.749723,24.3954767 172.539974,24.2579216 172.301136,24.1592015 C172.062048,24.062089 171.801155,24.0122517 171.517605,24.0106943 C171.234507,24.0122517 170.97487,24.062089 170.735782,24.1592015 C170.496944,24.2579216 170.29016,24.3954767 170.112313,24.5719169 C169.935973,24.7496634 169.798267,24.9564482 169.699597,25.195386 C169.602585,25.4343741 169.552748,25.6939603 169.55119,25.97736 C169.552748,26.2593529 169.602585,26.520396 169.699597,26.7577765 C169.798267,26.9954584 169.935973,27.2022431 170.112313,27.3786834 C170.29016,27.5537169 170.496944,27.6911213 170.735782,27.7884347 C170.97487,27.884241 171.234507,27.934229 171.517605,27.9356859 C171.801155,27.934229 172.062048,27.884241 172.301136,27.7884347 C172.539974,27.6911213 172.749723,27.5537169 172.927318,27.3786834 C173.105216,27.2022431 173.244177,26.9954584 173.342596,26.7577765 C173.441115,26.520396 173.491103,26.2593529 173.49256,25.97736" id="Fill-27" fill="#CD305E"></path>
        </g>
    </g>
</svg>