<?xml version="1.0" encoding="UTF-8"?>
<svg width="13px" height="20px" viewBox="0 0 13 20" version="1.1" xmlns="http://www.w3.org/2000/svg" xmlns:xlink="http://www.w3.org/1999/xlink">
    <title>Phone-header</title>
    <g id="Page-1" stroke="none" stroke-width="1" fill="none" fill-rule="evenodd">
        <g id="Phone-header" fill="#000000" fill-rule="nonzero">
            <g id="2104689">
                <path d="M10.1376147,0 L2.21712538,0 C0.992640845,0 0,0.992640845 0,2.21712538 L0,17.7828746 C0,19.0073592 0.992640845,20 2.21712538,20 L10.1376147,20 C11.3620992,20 12.3547401,19.0073592 12.3547401,17.7828746 L12.3547401,2.21712538 C12.3547401,0.992640845 11.3620992,0 10.1376147,0 L10.1376147,0 Z M10.7033639,17.7828746 C10.7033639,18.0953293 10.4500694,18.3486239 10.1376147,18.3486239 L2.21712538,18.3486239 C1.90467071,18.3486239 1.65137615,18.0953293 1.65137615,17.7828746 L1.65137615,2.21712538 C1.65137615,1.90467071 1.90467071,1.65137615 2.21712538,1.65137615 L10.1376147,1.65137615 C10.4500694,1.65137615 10.7033639,1.90467071 10.7033639,2.21712538 L10.7033639,17.7828746 Z" id="Shape"></path>
                <path d="M6.94189602,16.0550459 L5.41284404,16.0550459 C4.95682911,16.0550459 4.58715596,16.424719 4.58715596,16.8807339 C4.58715596,17.3367489 4.95682911,17.706422 5.41284404,17.706422 L6.94189602,17.706422 C7.39791096,17.706422 7.7675841,17.3367489 7.7675841,16.8807339 C7.7675841,16.424719 7.39791096,16.0550459 6.94189602,16.0550459 Z" id="Path"></path>
            </g>
        </g>
    </g>
</svg>