<?xml version="1.0" encoding="UTF-8"?>
<svg width="50px" height="50px" viewBox="0 0 50 50" version="1.1" xmlns="http://www.w3.org/2000/svg" xmlns:xlink="http://www.w3.org/1999/xlink">
    <title>Phone-2</title>
    <g id="Page-1" stroke="none" stroke-width="1" fill="none" fill-rule="evenodd">
        <g id="Phone-2">
            <circle id="Oval" fill="#F9F9F9" cx="25" cy="25" r="25"></circle>
            <g id="2104689" transform="translate(18.4615, 14.6154)" fill="#CD305E" fill-rule="nonzero">
                <path d="M10.5778423,0 L2.31340442,0 C1.03574644,0 0,1.03081934 0,2.30239944 L0,18.4668313 C0,19.7384114 1.03574644,20.7692308 2.31340442,20.7692308 L10.5778423,20.7692308 C11.8555002,20.7692308 12.8912467,19.7384114 12.8912467,18.4668313 L12.8912467,2.30239944 C12.8912467,1.03081934 11.8555002,0 10.5778423,0 L10.5778423,0 Z M11.1681593,18.4668313 C11.1681593,18.7913035 10.9038653,19.0543402 10.5778423,19.0543402 L2.31340442,19.0543402 C1.98738135,19.0543402 1.72308743,18.7913035 1.72308743,18.4668313 L1.72308743,2.30239944 C1.72308743,1.97792727 1.98738135,1.71489061 2.31340442,1.71489061 L10.5778423,1.71489061 C10.9038653,1.71489061 11.1681593,1.97792727 11.1681593,2.30239944 L11.1681593,18.4668313 Z" id="Shape"></path>
                <path d="M7.66450724,16.4721485 L5.94291981,16.4721485 C5.42948431,16.4721485 5.0132626,16.7927934 5.0132626,17.1883289 C5.0132626,17.5838644 5.42948431,17.9045093 5.94291981,17.9045093 L7.66450724,17.9045093 C8.17794274,17.9045093 8.59416446,17.5838644 8.59416446,17.1883289 C8.59416446,16.7927934 8.17794274,16.4721485 7.66450724,16.4721485 Z" id="Path"></path>
            </g>
        </g>
    </g>
</svg>