<?xml version="1.0" encoding="UTF-8"?>
<svg width="116px" height="16px" viewBox="0 0 116 16" version="1.1" xmlns="http://www.w3.org/2000/svg" xmlns:xlink="http://www.w3.org/1999/xlink">
    <title>Rating</title>
    <g id="Page-1" stroke="none" stroke-width="1" fill="none" fill-rule="evenodd">
        <g id="Rating" transform="translate(-0, 0)" fill="#FDD401" fill-rule="nonzero">
            <path d="M16.7698115,6.40686791 C16.8536606,5.98762262 16.5182643,5.48452828 16.099019,5.48452828 L11.3196228,4.81373582 L9.13954726,0.453584827 C9.05569821,0.285886712 8.97184915,0.202037655 8.80415103,0.118188597 C8.38490575,-0.133358575 7.8818114,0.0343395399 7.63026423,0.453584827 L5.53403779,4.81373582 L0.754641517,5.48452828 C0.503094345,5.48452828 0.33539623,5.56837733 0.251547172,5.73607545 C-0.0838490575,6.07147168 -0.0838490575,6.57456602 0.251547172,6.90996225 L3.68935853,10.2639246 L2.85086795,15.0433208 C2.85086795,15.2110189 2.85086795,15.3787171 2.93471701,15.5464152 C3.18626418,15.9656605 3.68935853,16.1333586 4.10860382,15.8818114 L8.38490575,13.6178869 L12.6612077,15.8818114 C12.7450567,15.9656605 12.9127549,15.9656605 13.080453,15.9656605 L13.080453,15.9656605 C13.164302,15.9656605 13.164302,15.9656605 13.2481511,15.9656605 C13.6673964,15.8818114 14.0027926,15.4625661 13.9189435,14.9594718 L13.080453,10.1800755 L16.5182643,6.8261132 C16.6859624,6.74226414 16.7698115,6.57456602 16.7698115,6.40686791 Z" id="Path"></path>
            <path d="M41.5525576,6.40686791 C41.6364067,5.98762262 41.3010105,5.48452828 40.8817652,5.48452828 L36.1023689,4.81373582 L33.9222934,0.453584827 C33.8384444,0.285886712 33.7545953,0.202037655 33.5868972,0.118188597 C33.1676519,-0.133358575 32.6645576,0.0343395399 32.4130104,0.453584827 L30.3167839,4.81373582 L25.5373877,5.48452828 C25.2858405,5.48452828 25.1181424,5.56837733 25.0342933,5.73607545 C24.6988971,6.07147168 24.6988971,6.57456602 25.0342933,6.90996225 L28.4721047,10.2639246 L27.6336141,15.0433208 C27.6336141,15.2110189 27.6336141,15.3787171 27.7174632,15.5464152 C27.9690103,15.9656605 28.4721047,16.1333586 28.89135,15.8818114 L33.1676519,13.6178869 L37.4439538,15.8818114 C37.5278029,15.9656605 37.695501,15.9656605 37.8631991,15.9656605 L37.8631991,15.9656605 C37.9470482,15.9656605 37.9470482,15.9656605 38.0308972,15.9656605 C38.4501425,15.8818114 38.7855387,15.4625661 38.7016897,14.9594718 L37.8631991,10.1800755 L41.3010105,6.8261132 C41.4687086,6.74226414 41.5525576,6.57456602 41.5525576,6.40686791 Z" id="Path-Copy-3"></path>
            <path d="M66.3353038,6.40686791 C66.4191529,5.98762262 66.0837566,5.48452828 65.6645113,5.48452828 L60.8851151,4.81373582 L58.7050396,0.453584827 C58.6211905,0.285886712 58.5373415,0.202037655 58.3696433,0.118188597 C57.950398,-0.133358575 57.4473037,0.0343395399 57.1957565,0.453584827 L55.0995301,4.81373582 L50.3201338,5.48452828 C50.0685866,5.48452828 49.9008885,5.56837733 49.8170395,5.73607545 C49.4816432,6.07147168 49.4816432,6.57456602 49.8170395,6.90996225 L53.2548508,10.2639246 L52.4163603,15.0433208 C52.4163603,15.2110189 52.4163603,15.3787171 52.5002093,15.5464152 C52.7517565,15.9656605 53.2548508,16.1333586 53.6740961,15.8818114 L57.950398,13.6178869 L62.2267,15.8818114 C62.310549,15.9656605 62.4782472,15.9656605 62.6459453,15.9656605 L62.6459453,15.9656605 C62.7297943,15.9656605 62.7297943,15.9656605 62.8136434,15.9656605 C63.2328887,15.8818114 63.5682849,15.4625661 63.4844358,14.9594718 L62.6459453,10.1800755 L66.0837566,6.8261132 C66.2514547,6.74226414 66.3353038,6.57456602 66.3353038,6.40686791 Z" id="Path-Copy-4"></path>
            <path d="M91.1180499,6.40686791 C91.201899,5.98762262 90.8665028,5.48452828 90.4472575,5.48452828 L85.6678612,4.81373582 L83.4877857,0.453584827 C83.4039367,0.285886712 83.3200876,0.202037655 83.1523895,0.118188597 C82.7331442,-0.133358575 82.2300499,0.0343395399 81.9785027,0.453584827 L79.8822762,4.81373582 L75.10288,5.48452828 C74.8513328,5.48452828 74.6836347,5.56837733 74.5997856,5.73607545 C74.2643894,6.07147168 74.2643894,6.57456602 74.5997856,6.90996225 L78.037597,10.2639246 L77.1991064,15.0433208 C77.1991064,15.2110189 77.1991064,15.3787171 77.2829555,15.5464152 C77.5345026,15.9656605 78.037597,16.1333586 78.4568423,15.8818114 L82.7331442,13.6178869 L87.0094461,15.8818114 C87.0932952,15.9656605 87.2609933,15.9656605 87.4286914,15.9656605 L87.4286914,15.9656605 C87.5125405,15.9656605 87.5125405,15.9656605 87.5963895,15.9656605 C88.0156348,15.8818114 88.3510311,15.4625661 88.267182,14.9594718 L87.4286914,10.1800755 L90.8665028,6.8261132 C91.0342009,6.74226414 91.1180499,6.57456602 91.1180499,6.40686791 Z" id="Path-Copy-5"></path>
            <path d="M115.900796,6.40686791 C115.984645,5.98762262 115.649249,5.48452828 115.230004,5.48452828 L110.450607,4.81373582 L108.270532,0.453584827 C108.186683,0.285886712 108.102834,0.202037655 107.935136,0.118188597 C107.51589,-0.133358575 107.012796,0.0343395399 106.761249,0.453584827 L104.665022,4.81373582 L99.8856261,5.48452828 C99.6340789,5.48452828 99.4663808,5.56837733 99.3825318,5.73607545 C99.0471355,6.07147168 99.0471355,6.57456602 99.3825318,6.90996225 L102.820343,10.2639246 L101.981853,15.0433208 C101.981853,15.2110189 101.981853,15.3787171 102.065702,15.5464152 C102.317249,15.9656605 102.820343,16.1333586 103.239588,15.8818114 L107.51589,13.6178869 L111.792192,15.8818114 C111.876041,15.9656605 112.043739,15.9656605 112.211438,15.9656605 L112.211438,15.9656605 C112.295287,15.9656605 112.295287,15.9656605 112.379136,15.9656605 C112.798381,15.8818114 113.133777,15.4625661 113.049928,14.9594718 L112.211438,10.1800755 L115.649249,6.8261132 C115.816947,6.74226414 115.900796,6.57456602 115.900796,6.40686791 Z" id="Path-Copy-6"></path>
        </g>
    </g>
</svg>